/* XPM */
static char *_1a86f1f806b4cfaaaf245977ff2a478CEp4vZbAamXlttn4[] = {
/* columns rows colors chars-per-pixel */
"50 50 166 2 ",
"   c None",
".  c #010101",
"X  c #0A0502",
"o  c #070808",
"O  c #0A0A0A",
"+  c #160B05",
"@  c #1B0E06",
"#  c #150F0B",
"$  c #1A0C09",
"%  c #0F100F",
"&  c #1E1007",
"*  c #16110F",
"=  c #1D110B",
"-  c #141414",
";  c #1D1713",
":  c #1F1A16",
">  c #1C1B1A",
",  c #22140A",
"<  c #2D190C",
"1  c #331C0E",
"2  c #381F0F",
"3  c #2A1F15",
"4  c #221E1B",
"5  c #331E10",
"6  c #381F10",
"7  c #39210F",
"8  c #24211F",
"9  c #2E251E",
"0  c #372213",
"q  c #3C2212",
"w  c #32251C",
"e  c #3E2219",
"r  c #242423",
"t  c #272926",
"y  c #272A29",
"u  c #2B2D2B",
"i  c #322B24",
"p  c #332F29",
"a  c #2D302E",
"s  c #33312B",
"d  c #3D352D",
"f  c #333633",
"g  c #333937",
"h  c #393D3B",
"j  c #442514",
"k  c #462814",
"l  c #4B2B16",
"z  c #4B291A",
"x  c #522E1A",
"c  c #592E1D",
"v  c #54311A",
"b  c #5C351C",
"n  c #5F381D",
"m  c #65371E",
"M  c #653C1E",
"N  c #693F1F",
"B  c #463020",
"V  c #463C2F",
"C  c #583120",
"Z  c #5A3926",
"A  c #473E31",
"S  c #4A3F32",
"D  c #663622",
"F  c #673821",
"G  c #6C3C22",
"H  c #733C25",
"J  c #3D423F",
"K  c #6D421E",
"L  c #4D4133",
"P  c #40423D",
"I  c #544133",
"U  c #534538",
"Y  c #54493C",
"T  c #6D4223",
"R  c #694128",
"E  c #724522",
"W  c #7D4327",
"Q  c #7D4229",
"!  c #664B31",
"~  c #644F3C",
"^  c #7B5233",
"/  c #3E4240",
"(  c #414543",
")  c #444946",
"_  c #474B49",
"`  c #4A4E4A",
"'  c #544D43",
"]  c #584E43",
"[  c #4C514D",
"{  c #5D5145",
"}  c #54544C",
"|  c #59544B",
" . c #515652",
".. c #555A55",
"X. c #585D57",
"o. c #575C58",
"O. c #595E59",
"+. c #5E625C",
"@. c #62655E",
"#. c #626760",
"$. c #656A63",
"%. c #6A6E65",
"&. c #6A6F68",
"*. c #706E62",
"=. c #6C7067",
"-. c #6D7269",
";. c #71756C",
":. c #75796E",
">. c #797B6F",
",. c #767A72",
"<. c #7A7E75",
"1. c #7C7F76",
"2. c #7A7D73",
"3. c #7A7F78",
"4. c #844728",
"5. c #854C2C",
"6. c #8B4D2A",
"7. c #904F2E",
"8. c #8B572F",
"9. c #89522B",
"0. c #92532E",
"q. c #935A2E",
"w. c #995F2F",
"e. c #985630",
"r. c #955930",
"t. c #9B5D33",
"y. c #A15E34",
"u. c #9D6232",
"i. c #A36435",
"p. c #A76A35",
"a. c #AA6C36",
"s. c #A66238",
"d. c #AB6639",
"f. c #AE6B3A",
"g. c #B46C3D",
"h. c #B96E3F",
"j. c #B6713E",
"k. c #BA723F",
"l. c #BD7341",
"z. c #BE7A41",
"x. c #C37D42",
"c. c #7D8177",
"v. c #7E8177",
"b. c #7D8076",
"n. c #7B8178",
"m. c #7C8278",
"M. c #7E8378",
"N. c #7E8178",
"B. c #7E847C",
"V. c #7E827A",
"C. c #808277",
"Z. c #808379",
"A. c #81857B",
"S. c #82857A",
"D. c #82867D",
"F. c #84877D",
"G. c #82857B",
"H. c #878B7F",
"J. c #84887E",
"K. c #83887F",
"L. c #C58144",
"P. c #C98345",
"I. c #878C81",
"U. c #868B81",
"Y. c #898E84",
"T. c #8D9189",
/* pixels */
"                                          ,.,.,.,.,.,.,.,.$.                                        ",
"                                        #.I.F.U.J.J.A.c.<.;. .                                      ",
"                                        #.<.1.c.2.M.,.$.&.$.)                                       ",
"                                         .:.2.2.2.c.,.&.&.+.                                        ",
"                                        ` -.,.1.:.1.,.;.-...(                                       ",
"                                    &.%.[ @.:.,.-.<.,.,.;...&.-.$.                                  ",
"                    #.;.@.    o.&.<.<.,.o. .;.;.-.,.,.<.;.O.D.<.,.,.#.    ,.M.$.                    ",
"                  ;.<.c.;.+.O.B.M.,.:.;.#.[ 1.c.M.M.<.2.-.$.n.;.-.;.n.O.;.I.J.A.$.                  ",
"                =.<.:.:.,.,.#.=.M.<.<.,.&. .-.,.<.,.,.;.@.=.<.,.;.;.@.+.J.J.J.A.<.@.                ",
"              ` &.:.:.,.,.,.,.O.-.:.;.' d i p u u u u u r a ) &.;.;.+.B.F.A.A.F.D.&.                ",
"                  @.,.,.:.:.<.=.} Y B q < < @ . . . . . . . . % f ` ,.J.Z.Z.c.c.$.                  ",
"                ` +.+.,.:.,.;.| Z v l j 2 1 @ X . . . . . . . . . O } ,.,.Z.<.+.#.`                 ",
"                ;.A.$.+.;.#.] R 5.G v j 2 1 @ X . . . . . . . . . . o f @.$.O.;.A.$.                ",
"              $.M.,.2...[ U T t.t.T v j 7 1 @ X . . . . . . . . . . . . r [ <.D.D.c.+.              ",
"            [ :.:.2.M.-.I 8.q.d.s.E b l q 1 @ X . . . . . . . . . . . . . a ;.M.D.c.;.`             ",
"            ..+.=.,.<.{ 5.z.i.g.s.E n l q 1 & X . . . . . . . . . . . . . . P 2.2.-.@.[             ",
"          +.<.-.&.=.*.^ d.L.a.g.s.E n l q 1 @ X . . . . . . . . . . . . . . O  .#.%.=.$.)           ",
"          ;.:.:.2.-.~ f.g.L.a.g.i.E n l q < @ X . . . . . . . . . . . . . . . t &.2.:.;.+.          ",
"          &.:.;.;.&.! j.l.P.f.k.i.G v k 2 < @ X . . . . . . . . . . . . . . . > &.;.;.:.%.          ",
"          @.-.&.=.| R k.g.x.i.g.s.T v k q 1 = X . . . . . . . . . . . . . . . O [ &.&.;.@.          ",
"        ;.;.;.;.&.A K j.s.z.u.g.d.E n l e w 8 = X . . . . . . . . . . . . . . . u $.=.$.&.,.        ",
"    ..;.M.<.,.M.,.L E g.d.x.p.k.d.E n l 0 r r : X . . . . . . . . . . . . . . . u ,.A.M.U.M.,.&.(   ",
"    $.c.,.,.;.-.=.L E j.g.L.a.k.s.E n l < 4 r 4 X . . . . . . . . . . . . . . . u ,.,.c.D.<.>.$.(   ",
"    %.c.<.A.F.,.=.L E j.g.P.a.g.t.T b k w r - ; X . . . . . . . . . . . . . . . a B.;.2.c.<.1.$.(   ",
"    +.,.,.2.2.<.-.L E l.l.P.a.g.t.M x j 9 > - * X . . . . . . . . . . . . . . . a U.2.2.<.<.:.#.(   ",
"    ..&.$.&.&.;.&.L E k.l.P.p.d.r.M l q 4 r > # X . . . . . . . . . . . . . . . u M.:.-.-.&.$.X.(   ",
"    `  . . ..... .S E j.l.x.i.d.y.N l q ; > = , X . . . . . . . . . . . . . . . y ........ .[ ` /   ",
"        / $.M.3.$.S K j.l.x.t.g.s.M k q , = < , X . . . . . . . . . . . . . . . y &.<.<.+./         ",
"        ( ,.T.J.:.L K j.l.x.w.g.s.M k q 1 5 < = X . . . . . . . . . . . . . . . a U.2.:.@.(         ",
"        ( $.A.C.:.L K j.l.x.t.g.s.M l q q 5 , @ X . . . . . . . . . . . . . . . a J.,.,.$.(         ",
"        ( @.,.c.;.L K j.l.L.i.g.d.T l j 6 1 @ X . . . . . . . . . . . . . . . . u <.-.&.@.(         ",
"        ( $.:.:.&.L K j.l.x.p.k.d.T x k 2 < @ X . . . . . . . . . . . . . . . . u ;.&.+.O.(         ",
"        J +.$.@...S K j.l.x.u.g.t.M l k 2 < @ X . . . . . . . . . . . . . . . . y $.$.+.O./         ",
"    )  . ...O...[ V K j.h.L.u.d.r.M l k 7 1 @ X . . . . . . . . . . . . . . . . y ..o.O...[ .. .    ",
"    O.A.J.U.Y.J.,.L K j.k.L.i.y.0.M l j q 1 @ . . . . . . . . . . . . . . . . . u B.c.M.c.<.c.&.)   ",
"    +.<.>.2.<.2.&.L K j.l.z.q.e.5.n k j q < + . . . . . . . . . . . . . . . . . u <.@.&.2.D.C.$.(   ",
"    #.<.c.A.2.;.%.S K g.g.z.q.7.4.b k q 2 < + . . . . . . . . . . . . . . . . . a J.-.;.c.F.1.$.)   ",
"    $.M.<.C.2.;.%.S K f.y.k.9.6.W v j 2 1 = . . . . . . . . . . . . . . . . . . a U.c.c.c.2.:.$._   ",
"    +.c.2.c.,.-.#.L E p.0.f.E Q H v q 2 = . . . . . . . . . . . . . . . . . . . u M.M.2.c.Z.;.@.)   ",
"     .&.&.#.+.+.o.S K u.6.y.G H F x q @ . . . . . . . . . . . . . . . . . . . . y O.$.$.$.$.O.` J   ",
"    ( ` _  .%.$.+.A K t.4.0.m G D l $ . . o o o o O O O O O O O X o o o o o O o u o.$.%.O._ h g     ",
"        ( $.,.M.:.S K t.W 4.n G c = . o O O O O O O O O O O O o o o o o o o o o f M.<.<.$.(         ",
"        ( $.,.,.;.S K r.H Q v x = O O O O O O O O O o o o o o o o o o o o o O O h J.:.:.$.(         ",
"        ( -.2.;.;.S K 9.H Q z # O O O O o o o o o o o                           h <.;.,.&.(         ",
"        ( -.,.-.&.S K 9.H C # o O O O O o o                                     h ;.:.2.;.(         ",
"        ( $.&.$.+.A M 5.e O O O O O O O                                         J &.,.c.;.(         ",
"        / [  .[ _ s < 3 * $ O O O -                                             h [  ... ./         ",
"                                                                                                    ",
"                                                                                                    ",
"                                                                                                    "
};
