/* XPM */
static char *e5b1d8afdc484d7fe20b7a13be27b68ayDIisnNMLFfCZID2[] = {
/* columns rows colors chars-per-pixel */
"50 50 186 2 ",
"   c None",
".  c #3D3930",
"X  c #562E19",
"o  c #563019",
"O  c #5D321D",
"+  c #61341E",
"@  c #49392E",
"#  c #573C26",
"$  c #493E35",
"%  c #523F34",
"&  c #663520",
"*  c #693622",
"=  c #6C3922",
"-  c #633B24",
";  c #743C25",
":  c #793E27",
">  c #7A3E29",
",  c #5F412D",
"<  c #454037",
"1  c #4D463D",
"2  c #4E483E",
"3  c #554437",
"4  c #5D4A35",
"5  c #5A4438",
"6  c #51493E",
"7  c #5D4636",
"8  c #6A472E",
"9  c #754024",
"0  c #7A4226",
"q  c #72452B",
"w  c #7D422B",
"e  c #694430",
"r  c #624D37",
"t  c #644E39",
"y  c #634332",
"u  c #714D33",
"i  c #794C34",
"p  c #754731",
"a  c #6F513C",
"s  c #7E5035",
"d  c #3E4341",
"f  c #424543",
"g  c #454946",
"h  c #4C4A42",
"j  c #474C49",
"k  c #4A4E4A",
"l  c #534D43",
"z  c #5A4F41",
"x  c #4D524E",
"c  c #575147",
"v  c #5E5447",
"b  c #53534D",
"n  c #5B554A",
"m  c #5E584E",
"M  c #4F5551",
"N  c #525652",
"B  c #565A55",
"V  c #595C56",
"C  c #5A5E59",
"Z  c #5A5652",
"A  c #615547",
"S  c #615749",
"D  c #655B4D",
"F  c #695D4F",
"G  c #645B55",
"H  c #5E625C",
"J  c #7F634E",
"K  c #6A6052",
"L  c #62655E",
"P  c #66685F",
"I  c #67625A",
"U  c #796050",
"Y  c #636761",
"T  c #656A63",
"R  c #6A6E66",
"E  c #676D68",
"W  c #6B6E69",
"Q  c #6D7067",
"!  c #6E726A",
"~  c #72766C",
"^  c #75796E",
"/  c #787B6F",
"(  c #727770",
")  c #767A72",
"_  c #7A7E74",
"`  c gray48",
"'  c #804A27",
"]  c #83442C",
"[  c #8A462E",
"{  c #864B2C",
"}  c #8B4A2E",
"|  c #8D532C",
" . c #86502B",
".. c #92542E",
"X. c #94582F",
"o. c #8B4F30",
"O. c #884B34",
"+. c #944D31",
"@. c #984E36",
"#. c #9A4F38",
"$. c #875637",
"%. c #8E5433",
"&. c #855239",
"*. c #955331",
"=. c #9C5434",
"-. c #965B31",
";. c #9B5C34",
":. c #9E5E38",
">. c #945B3F",
",. c #A35A36",
"<. c #A4563C",
"1. c #A45C39",
"2. c #AA5E39",
"3. c #A25537",
"4. c #B25F3F",
"5. c #9E6134",
"6. c #99633A",
"7. c #A26435",
"8. c #AA6237",
"9. c #A56B36",
"0. c #A56239",
"q. c #AC633B",
"w. c #A66938",
"e. c #AC6C3A",
"r. c #B2653C",
"t. c #B46B3D",
"y. c #B96C3E",
"u. c #B5733D",
"i. c #BB753E",
"p. c #B4793B",
"a. c #BA7A3E",
"s. c #855D43",
"d. c #975C40",
"f. c #8D6245",
"g. c #9B6042",
"h. c #A36F49",
"j. c #B26640",
"k. c #B76D41",
"l. c #BC6E41",
"z. c #BB6643",
"x. c #B47340",
"c. c #BC7441",
"v. c #BE7C41",
"b. c #C26E46",
"n. c #C37543",
"m. c #C47A44",
"M. c #CA7D46",
"N. c #CA7D49",
"B. c #CD7E48",
"V. c #CA7549",
"C. c #D07C4B",
"Z. c #7D8177",
"A. c #7E8176",
"S. c #7F8279",
"D. c #7C8178",
"F. c #7D8279",
"G. c #BE8142",
"H. c #808377",
"J. c #81857A",
"K. c #81867D",
"L. c #81857C",
"P. c #898079",
"I. c #86897E",
"U. c #84887E",
"Y. c #8E8075",
"T. c #B68D72",
"R. c #C38243",
"E. c #CB8446",
"W. c #CD8A47",
"Q. c #CE8149",
"!. c #CF8B48",
"~. c #D2844B",
"^. c #D8864F",
"/. c #D58A4C",
"(. c #D98C4E",
"). c #DB924D",
"_. c #DB8C50",
"`. c #DE9252",
"'. c #E19454",
"]. c #7F8182",
"[. c #858981",
"{. c #8A8E84",
"}. c #8D8D8D",
"|. c #95918F",
" X c #AA998F",
".X c #B9A99F",
/* pixels */
"                                                                                                    ",
"                                                                                                    ",
"                                        ( U.K.K.K.K.K.)                                             ",
"                                      x S.S.K.S.J.) ~ ! B                                           ",
"                                      j ~ _ _ _ S.! T E k                                           ",
"                                        T _ _ _ Z.~ E H                                             ",
"                                        H ^ _ ^ _ ^ ~ L k                                           ",
"                        V         T _ T N ~ ~ ! _ _ _ H ! D.~ B       T                             ",
"                      ~ ) V   T ) _ ( Q k W ) ^ ) ) _ H _ ) ( _ T   _ U.~                           ",
"                    ) _ _ ! H _ D.) ) ~ B ~ S.S.S._ ^ Y _ ^ ! ~ E E {.U.J.T                         ",
"                  ! ) ) ) ) ! H _ _ ) E N C R Q ~ R L H ( ) ^ ~ V Z.U.U.J._ L                       ",
"                  H ~ ) ) ) _ T T R F , p &.>.s g.d.&.i r K E L ) U.J.Z.K._ V                       ",
"                    V ^ ) ^ _ ! 1 e o.*.1.1.q.*.k.j.q.q.1.%.y b K.H.H.J.~ V                         ",
"                  B E H ^ ~ ! l - ;.q.0.q.j.k.5.N.n.c.l.k.q.%.i m ! _ ~ L Q                         ",
"                  ) S.T H Y 6 q | 0.k.t.n.M.N.e.^.~.B.N.M.x.:.r.q l B H _ J.L                       ",
"                T _ ) ) B $ q :.-.r.M.M.N.Q.Q.u.`._.~.~.~.N.e.n.q.q h _ J.U._ B                     ",
"                T ^ _ _ n q 0.e.7.c.~.Q.~.^.~.a.'.(.^.^.^.Q.x.Q.c.q.u I S.S._ H                     ",
"              T H T ^ ! , :.r.c.e.m.^.~.^.(.^.a.'._.^./.~.Q.v.^.M.c.0.a ~ ~ T V N                   ",
"              ^ ) ~ W A { q.n.M.u.R.^.^.(.(.^.a.'.(.~.~.~.Q.a.(.Q.M.x.%.c T ~ ~ V                   ",
"              ^ ^ ^ R 8 5.k.N.Q.i.W.(.(.(.~.~.a.`.^.~.~.~.Q.p.(.Q.M.c.w.t ! ^ ^ Q                   ",
"            h ^ ~ ~ P $.t.M.Q.~.i.!.(._.(.~.~.i.`.~.~.~.~.Q.a.(.Q.M.m.t.s.E ~ ^ ~                   ",
"            x T T L z :.c.M.~.^.m.!.(.(.^.~.~.i.`.~.~.~.^./.a.).~.Q.M.c.6.n Y P L g                 ",
"        N ) F.F.K.) 4 t.Q.~.(.(.m./._.^./.~.~.p.`.(./.^.(./.v.`.~.~.~.M.5.l ) ) ) K.K.T             ",
"        Y ) ) ! ~ ! r c.~.~.(._.m./._.^./.~.~.m.`.(.(.(._./.R.'.~.~.~.Q.e.v ) Z.K.Z.^ L             ",
"        ! _ _ _ ~ E r m.~.~.(.(.m./._.~.~.~.~.a.).(.).(.(.~.R.'.~.~.~.~.p.D _ _ S._ _ L             ",
"        W _ _ J.Z.Q r n.Q.~.^.^.m./._.~.~.~.~.i.).(.`.(.~.Q.R.'.~.~.~.^.m.K D.^ _ _ _ L             ",
"        L ~ ^ ^ ) ! r n.B.~.~.~.v./._.~.Q.~.~.i.).~.(._.~.Q.R.`.~.Q.~.~.R.F K.) ) ) ~ V             ",
"        B T L L T T r i.M.~.~.~.v./.~.Q.Q.~.Q.p.).~.(._.~.N.R._.Q.Q.~.~.R.S ( E T T H N             ",
"        g k k B V M 4 i.~.~.~.~.c./.~.Q.Q.~.Q.e.`.~.~./.~.M.v.(.Q.Q.~.~.G.6 B V B k g f             ",
"            B [.{.~ r i.~.~.~.~.u.E.~.M.M.Q.B.e._.~.~.~.~.M.p.(.M.M.Q.~.v.v S.K.! g                 ",
"            B U.U.~ t m.~.~.~.~.i.E.~.Q.Q.Q.Q.e.(.Q.Q.~.Q.M.a./.M.M.B.~.a.D K.^ E k                 ",
"            b ^ H.^ t n.~.~.~.~.c.W.~.Q.Q.Q.Q.p.^.B.B.Q.B.M.v.~.n.x.c.M.a.F D.~ ! k                 ",
"            x ~ Z.~ r c.Q.Q.~.~.c.W.~.B.Q.~.Q.i.^.B.Q.B.M.M.a.~.h. X.XT.p.D ) T T k                 ",
"            N ~ ~ T r i.M.Q.Q.~.u.E.~.Q.Q.~.B.e.^.B.Q.Q.B.M.p.Q.8 Y ].J p.A ! Y H j                 ",
"            j V V x 4 m.B.B.Q.Q.t.R.~.~.Q.~.~.e.(.~.Q.~.~.M.p.E.U ! }.Y.6.6 H H V f                 ",
"        M T W W E H r n.B.B.B.Q.u.W.(.~.Q.~.~.p.`.Q.Q.~.~.N.p.x.P.N k |.f.6 T T T H Y B             ",
"        T J.J.U.U.( r i.B.M.M.B.u.E.^.~.~.~.~.w.(.Q.Q.~.Q.M.a.e.I k f I u n S.^ _ Z.J.L             ",
"        T _ _ Z./ E r i.B.M.M.M.e.m.~.B.Q.~.~.:.~.B.M.Q.B.m.p.e.G ` W W # n ( Y ^ [.Z.L             ",
"        Q _ J.Z.~ E r i.M.n.n.n.7.v.~.M.B.B.~.5.~.M.M.M.M.c.9.i.# Z I 3 = m K.~ _ H._ L             ",
"        W Z.Z.Z.^ T r y.n.n.l.l.-.x.C.n.M.M.M.7.~.n.n.M.n.y.7.i... .{ 5.7.n K.Z.Z._ ^ L             ",
"        T _ _ ) Q L r t.n.l.t.t.X.p.V.n.M.n.n.-.Q.y.t.c.l.r.5.x.y.n.t.k.9.l _ Z.) S.~ B             ",
"        x H V B B N 7 r.l.q.r.r...u.b.y.n.y.l...M.r.8.t.t.8.-.r.,.0.=.,.5.< N V V V x d             ",
"            x ! ) E 5 =.1.,.,.,.{ e.z.q.y.r.t.| n.8.3.2.2.3...2...*.} *.-.1 ! _ W k                 ",
"            N ! _ ^ 5 +.=.=.=.=.0 w.4.,.q.2.q.| c.3.=.3.3.=.| ,.] { w } X.n J.~ ! k                 ",
"            N ^ ^ ~ 5 [ +.+.+.+.9 =.<.=.=.,.,.{ r.=.+.+.+.} ' *.0 0 0 ' | S S.^ ! k                 ",
"            B _ ~ ! 3 ] ] ] ] ] * +.@.} +.*.+.' <.} ] ] [ ] 9 } ; : : 0 0 l ) ~ ~ x                 ",
"            B ^ ! T % : > > w : + ] } ] [ } ] 0 3.] : w ] ; * ] ; ; ; ; ; h ~ _ _ x                 ",
"            x T L V % ; ; ; ; = + ] ] > w ] w 0 #.> ; ; > = + > * = = = ; 2 Q ~ ~ x                 ",
"            d g g d @ & & & & + o * ; * * = * + > * & & & + X & O O O O O . g j k f                 ",
"                                                                                                    "
};
