/* XPM */
static char *c3a018033ef5442bd8a833df20762ddf9l6K4sjtErxxvFc6[] = {
/* columns rows colors chars-per-pixel */
"64 68 218 2 ",
"   c #050503",
".  c #080705",
"X  c #060A06",
"o  c #090906",
"O  c #060B09",
"+  c #0C0D0A",
"@  c #100E0C",
"#  c #0D120D",
"$  c #0A150C",
"%  c #12120E",
"&  c #17190E",
"*  c #0E1511",
"=  c #0E1B13",
"-  c #141511",
";  c #141A14",
":  c #1B1B15",
">  c #151E19",
",  c #1C1E19",
"<  c #191713",
"1  c #211F1B",
"2  c #221E15",
"3  c #0E2016",
"4  c #152117",
"5  c #162219",
"6  c #1C231C",
"7  c #1C281F",
"8  c #1A2016",
"9  c #22231D",
"0  c #29251C",
"q  c #2A2A1E",
"w  c #25271C",
"e  c #31291E",
"r  c #1E2421",
"t  c #1E2A22",
"y  c #242621",
"u  c #282722",
"i  c #232B24",
"p  c #2B2B24",
"a  c #252D29",
"s  c #2D2E29",
"d  c #322D23",
"f  c #312F2B",
"g  c #243227",
"h  c #25322A",
"j  c #2C332C",
"k  c #2B392C",
"l  c #2D3027",
"z  c #323126",
"x  c #33332C",
"c  c #39362C",
"v  c #333A2E",
"b  c #39392E",
"n  c #2C3630",
"m  c #2D3B32",
"M  c #353531",
"N  c #393732",
"B  c #333B34",
"V  c #3B3B33",
"C  c #3D3D39",
"Z  c #363D3A",
"A  c #423E34",
"S  c #423F3A",
"D  c #403E2F",
"F  c #324136",
"G  c #3B4136",
"H  c #35433A",
"J  c #3B433B",
"K  c #3A493F",
"L  c #374838",
"P  c #2E4237",
"I  c #414136",
"U  c #44443B",
"Y  c #4A453C",
"T  c #49493E",
"R  c #45483B",
"E  c #3D4B43",
"W  c #3D4542",
"Q  c #3F5146",
"!  c #3F5348",
"~  c #454641",
"^  c #434C44",
"/  c #4C4C42",
"(  c #484C48",
")  c #524D43",
"_  c #514F4A",
"`  c #445144",
"'  c #4D5245",
"]  c #45544A",
"[  c #4B544C",
"{  c #4B5A4D",
"}  c #485946",
"|  c #515146",
" . c #54544B",
".. c #5A594E",
"X. c #57574C",
"o. c #4D5B51",
"O. c #4D5451",
"+. c #525D54",
"@. c #5C5C53",
"#. c #595A55",
"$. c #615E52",
"%. c #536255",
"&. c #55635A",
"*. c #5B635B",
"=. c #5B695D",
"-. c #5A6857",
";. c #4F6050",
":. c #626256",
">. c #65655A",
",. c #66685C",
"<. c #6A6A5D",
"1. c #68665A",
"2. c #5D6C62",
"3. c #5C6560",
"4. c #5F7066",
"5. c #636660",
"6. c #646C65",
"7. c #6C6C63",
"8. c #6B6F69",
"9. c #656C67",
"0. c #716F67",
"q. c #627165",
"w. c #65726A",
"e. c #6B736B",
"r. c #6A796E",
"t. c #6F7063",
"y. c #727266",
"u. c #73736A",
"i. c #7B7B6E",
"p. c #78786B",
"a. c #6D7B72",
"s. c #757671",
"d. c #747C74",
"f. c #7C7C73",
"g. c #7C7E78",
"h. c #807E71",
"j. c #807F7B",
"k. c #758379",
"l. c #7B847C",
"z. c #7B8A7D",
"x. c #758275",
"c. c #828275",
"v. c #85847B",
"b. c #89867A",
"n. c #8A897D",
"m. c #85897A",
"M. c #7D8A82",
"N. c #848B83",
"B. c #8C8C83",
"V. c #888C87",
"C. c #918E85",
"Z. c #859285",
"A. c #8C948C",
"S. c #8C9B8C",
"D. c #869289",
"F. c #929185",
"G. c #94948A",
"H. c #99968A",
"J. c #949A8D",
"K. c #9A998D",
"L. c #989785",
"P. c #8F9A92",
"I. c #9C9B94",
"U. c #979B96",
"Y. c #A19E95",
"T. c #9BA59C",
"R. c #98A499",
"E. c #A2A195",
"W. c #A4A49C",
"Q. c #A9A89C",
"!. c #B1B09E",
"~. c #9DAAA3",
"^. c #A5A6A1",
"/. c #ABACA4",
"(. c #A8ABA5",
"). c #ACB3AB",
"_. c #A7B3A9",
"`. c #B3B3A5",
"'. c #B4B4AB",
"]. c #BAB8AC",
"[. c #B5B5B1",
"{. c #BDBCB5",
"}. c #B6BBB3",
"|. c #AEB5AD",
" X c #C1BEB7",
".X c #B9C7BD",
"XX c #C3C4BD",
"oX c #C6C7BB",
"OX c #BDCAC2",
"+X c #CCCAC3",
"@X c #C4C8C3",
"#X c #D1CEC9",
"$X c #CCD4CC",
"%X c #D3D4CC",
"&X c #D6D6CC",
"*X c #CEDBD2",
"=X c #D4D6D0",
"-X c #D4DCD5",
";X c #DDDDD5",
":X c #D9D6D1",
">X c #E1DFD6",
",X c #DCE3DC",
"<X c #DBE7DC",
"1X c #E2E3DC",
"2X c #E8E8DA",
"3X c #DEEEE3",
"4X c #EAEBE4",
"5X c #E7EAE5",
"6X c #F1EFEA",
"7X c #EAF3EB",
"8X c #E9F8ED",
"9X c #F2F4E9",
"0X c #F4F6F2",
"qX c #F3FCF4",
"wX c #F6FDFA",
"eX c #FBFEFB",
"rX c #F9FAF5",
"tX c #EDF8F2",
/* pixels */
"  O   # = 6 7 k h Z Z W ^ E ( W J J B B B B m n k h h h h h k k g h h h t t t 7 7 5 5 t 5 5 3 3 3 3 = = = = * # * # * * + O + O ",
"  * 6 j H [ *.e.M.M.V.P.~.~.U.U.D.P.M.l.N.l.k.M.a.a.a.a.e.w.w.w.2.4.q.2.2.2.=.&.%.o.] E E K K m P P m m h h h j j i i i r r > * ",
"O r Z [ 6.N.~.|.OX-X7XqXwXeXwXwXeX8XqX8X-XR.[ K K H H H H H H H m m m m k k h h t m o.w.w.2.&.o.E ] ] ] ] ^ E J H B n j n a r * ",
"+ s ^ [ ^ +.e.k.D._.@XwXeXeXwXeXwXeXqXwX_.&.r.k.k.r.4.4.q.q.2.&.&.&.&.%.o.o.] ] E H H 2.2.2.] ] ] ! E K E E H n k a i i a h r $ ",
"; Z [ +.O.&.*.2.w.(..XqXtXwXqXtXqXqXtXqX|.9.a.w.2.2.2.2.&.&.&.&.o.o.o.] ] E E H E F m &.&.2.] ] Q Q Q Q ] ] K n a t t a h n a = ",
"> O.8.9.+.*.9.d.M.).}.-X=X,X,X-X$XOX$X@XOXOX.X@X.X_.~.~._._.T.M.N.M.M.M.l.k.a.r.w.2.2.=.+.{ ] ` E ] ] E E E F h h a a t a h t * ",
"a +.w.+.3.9.9.6.e.e.e.l.V.N.N.N.N.z.e.w.e.a.a.6.&.*.2.2.+.o.o.[ ^ ^ E K J J H B B n n g h h a 5 7 t 7 7 t n Z B k k h h h m h > ",
"a d.T.9.*.] +.&.8.A._.d.e.d.g.e.e.6.8.9.*.5.9.*.&.+.+.+.o.O.[ ^ K J J H H H H B M M n n a h i i 7 y a a k M j 7 6 5 5 5 t n h > ",
"B D.k.A.-X$X-X<X7X-X9.5.s.g.u.u.u.t.6.e.5.5.*.[ [ ^ ^ ^ U J J n M B B k k B M j a s i y i i y 9 9 y u 6 y j ^ ^ Z B Z H y y i 5 ",
"n Z.o.+.5XqXwXqX-Xe.s.A.U.^.(.W.I.U.G.G.g.f.s.u.5.#.[ ( ~ ~ ~ J J J J U U C N x p s s s x x a p s y , : : 6 M J K J J J > ; h > ",
"^ Z.+.h *XeXqX%X5.l.^.(.[.[.=XXXXX{.'.'.I.B.N.s.g.0.7.>.#.@.#. .#.| | @.@.| ~ U U U V B N x s p d p , , : & , i J ~ J Z # $ l > ",
"L S.+.i -XqX7Xg.v.V.@X@X=X5X$X1X1X=X+XXX'.^.^.W.G.v.f.s.0.8.7.:.y.7.7.f.c.y.@.X./ / ~ R ~ ~ R U V A d s w 9 : > l [ J J - $ l ; ",
"R R.x.F <XqX5XA.G.{.5XeXrXeXeX0X0X7X4X1X+X{.oXoX[.Y.C.B.B.B.v.p.v.f.u.u.y.y.7.y.>.>.:.@.:.@.| / ) / c x s u , : 9 &.L H 6 = i ; ",
"` S.|.r.5XeX=X).,X0X0XrXeX0XrXeX9X4X4X1X%X X X'./.Y.K.G.B.v.l.u.p.i.f.i.y.7.7.7.X. ./ |  .| / / _ Y c N x u 6 8 y w.^ L t ; t ; ",
"} S.S.x.<XqX1X(.1X6XrX0XrXrXeXeX0X4X1X&X%X#X#X{.Q.I.K.G.n.c.f.y.f.i.u.u.y.7.7.y.>.@.| T / T R T Y A V V V l a 7 i r.{ E t 5 a ; ",
"` Q.Z.w.<XqX-X(.=X6X4X4X6X0X4X5X1X;X:X%X%X+X+X/.(.K.B.v.v.v.f.7.f.7.:.<.y.7.>.:.@. .~ T / ~ T ~ x c N x x s j 7 i e.o.` 7 7 h ; ",
"[ T.D.+.<XeX-XW.).[.[.[.+X:X'.(.^.W.K.I.W.C.v.f.f.0.u.5.@.#.#._ _ ~ U ~ U C N x N N N s x x p s y 9 u u 9 p p ; 7 w.+.J 7 6 a 6 ",
"O.(.U.h *XtX<XA.^.(.[.@X:X#X^.W.^.U.W.(.B.V.V.s.7.5.j.5.#.#._ _ #.~ U U C N M M C ~ U f s x s 9 y 1 1 1 1 9 1 - 7 *.^ K 5 $ y - ",
"+.T.P.F <X7X-XA.(.).[.XX#X{./.'./././.(.I.U.B.B.f.s.B.7.#.@.#.#.#./ ~ / R V N N C C N M s p p y p y 9 9 1 , : - 9 +.J J 5 $ i 5 ",
"[ T.~..X8XtX*X(.:X1X4X4X6X>X1X1X6X;X1X;X@X{.[.(./.W.I.B.g.u.s.8.u.5.>.>.@.#.#.#._ / / _ ~ N U C M M x f f p y y a +.J H t = y ; ",
"o._.P.D.3X_.~.D.).{.'.^.(.W./.Q.Q.Q./.I.G.c.c.c.y.7.7.6.,.:.,.X.@.| ~ U U R ~ U x N N M p u f 9 y u 9 1 1 , : < 7 M l H a 7 g ; ",
"` _.z.z.<X=.*.T.T.(.Q.U.I.W.).(.I./.W.B.K.f.7.7.p.t.d.,.:.7.@./ | | / U V U U M C S C N x p s p a p p y 1 1 , : > = 7 ^ a t n 5 ",
"} R.m.=.*XA.T.R.XX,X;XoX(.W.W.I.I.I.I.'.'.Q.W.B.G.B.F.c.c.n.f.7.u.y.y.,.@.@.#.| _ ~ U N M s p x l a x x s y 9 , u i i E t 5 h * ",
"} (.z.;.8XOX_.D.}.,X;X/.y.7.8.y.,.7.,.W.(.K.H.K.G.B.c.n.F.n.v.7.f.y.<.@. . .X.| ~ ~ U p 9 u , 1 6 : p N x y 9 , 6 ^ h k 7 5 y ; ",
"` R.-.F <XS.Z.Z.}.$X;X'.7.7.7.7.:.>.>.H.Q.E.K.H.b.n.n.b.n.n.i.<.7.<.<.:.| | X.~ / U N u 9 w , < : : 1 x x p p , y k 7 k 6 ; i > ",
"` J.+.g .Xq.+.N.).#X%X'.7.y.7.,.>.:.:.E.'.E.K.K.F.F.F.B.b.f.7.:.<.>.:... .| / / ~ U V p : : : ; : : 9 x x y y < > ; = h t ; y < ",
"^ z.a.&..Xz.x.A./.oX:X].p.y.y.<.>.y.y.K.`./.W.K.b.n.c.b.c.u.7.>.,.>... ...| T / U U U s 9 w y y , , 9 x x p p 9 6 > 5 k a > y < ",
"^ k.&.+..XR.A.A.(.XXoXoXc.v.p.i.f.f.c.H.W.E.K.K.B.B.f.f.f.y.y.:.>.>.@. .X./ R T ~ R U x w p w , w 9 9 y u w 9 6 y J k M a 6 i ; ",
"F l.J K .X*X.Xd.I.Q.XX&X&X1X2X1X;X:X+X(.W.W.B.i.n.G.c.i.y.7.7.@.:.:.@.X.| | / R R R / / | .. ./ V B x s p y 9 > u &.n B i > r ; ",
"J a.^ 7 |.9.R.d.B.Q.Q.{.'.+XXX'.XXW.E.I.I.G.c.B.c.H.B.f.7.7.7.@.@.@.@...@.:...T V N U R T T I V x x x p p p , : y &.7 n i ; r ; ",
"J a.W H R.e.A.6.N.W.Q.I.E.Y.E.H.K.G.F.v.v.f.f.c.E./.W.b.y.y.7...X.....,.f.f.:./ R b b V N x p q p p s p s s 9 7 7 [ > j t = y ; ",
"k M.] t T.6.M.9.f.F.B.b.B.m.b.n.f.n.b.b.i.:.p.c.'.'.W.c.y.u.,. . .@.@.u.I.H.7. .R p w 0 p p w w 9 9 w 6 w u : : 6 ~ 7 k 6 * i * ",
"k d.%.L R.;.z.d.*X9X4X2X2X2X9X9X2X2X2X1X>X`.X.i.Q./.oX<.t.:.:.T ) / X.@.7.B...T I / 7.:.:.1...1.>.@... . .| ~ V i J 4 g 6 t 7 - ",
"k q.%.} S.=.z.w.R.).'.`.!.`.oXoX!.oX].].].!.c.>.>.y.C.$.<.X...| T /  ./ / @. .| z ..| T ) R D b V b b b c z p 6 8 G 4 g 7 a y > ",
"k -.{ { Z.z.A.*.J.G.H.L.F.L.!.K.L.E.E.Q.F.H.I.7.b...Y n.:.1...X./ U R R R z I I U  .I T I z c q p p d d u w 9 : 6 J 7 k 7 y y - ",
"k q.K k S.2.` &.d.c.F.C.c.c.H.L.c.L.H.F.L.n.h.c.1.i.n.h.y.:.<.A / | | / | T | z / V V U x x s x s s d p 9 1 9 , % u 6 Z ; > y - ",
"i =.^ 4 P.k.=.5.7.f.n.n.h.b.F.F.c.c.H.L.F.F.c.f.F.Q.'.`.`.!.H.y.i.c.c.i.y.u.y. .V N V u x x w f p p p 9 , : , : 6 7 y [ ; - l > ",
"v =.L ; T.z.+.#.,.f.f.v.b.C.c.i.p.c.b.n.c.p.<.y.i.p.b.h.h.h.i.@.y.1.1.t.>.@./ R N x N f x p p p u y u w 1 , , : w 8 i +.# O y # ",
"g =.{ j M.x.*.] +.y.v.v.c.n.b.c.b.i.b.B.<.>.<.>.,.<.>...7.@. ./ T ' / ' | | R b V x x N s 9 s 9 9 9 y w 9 1 , ; 7 6 i %.5 = l > ",
"i %.^ F M.a.{ { *.7.f.7.0.f.b.i.i.i.c.i.<.y.....@./ /  . ./  .I I R U R U b b b N V x x a x p p w w y y 9 6 , : 6 7 i +.7 ; i - ",
"t [ K k q.2.] [ +.7.t.>.,.i.i.<.y.c.i.p.>.>.<...X.T X...X.| / V V V x N V c d b p x x s s s p p 9 u w 6 9 9 , : 6 t j E t = t ; ",
"6 [ m k 2.w.+.[ o.*.7.y.p.i.y.7.<.y.y.>.@...@. ...| R / R U T V U ~ J x N V V V c d p p z s p p u w 9 , 9 y , - 7 l H H 6 7 a - ",
"6 ` h t =.a.r.^ { *.>.>.7.u.y.t.<.y.y.@.@.@.....~ / R U R R R x U U C N V N c c c z q q p s p p q w 9 : : , : ; 6 J L n ; 5 i = ",
"6 K i = +.2.k.G ' >.,.:.7.y.7.,.1.<.>.| X. .| | 7.~ ~ ~ @.I I R C N C C S V V c d z d q 0 s x p q w w 9 2 , , : 8 ` n n # X y # ",
"9 C u # ^ +.N.G ' @.@.:.<.,.:.>.:.<. .| | ~ ~ R | / U N X.T / V M N S N S T ) Y d z z p 0 s x s z q q d d d 0 & : ' l M < O 9 - ",
": J J U #.,.N.G / X...X.@.:.:.:.:.<./  ./ ~ ~ R R / x R ..~  .I B x V b Y Y ) Y A d d f d x x x c d d z d d d 9 9 / x l , 9 9 ; ",
", s p s l J f.U I | ....$.:.:.......' / T U R U U X.J x B R / b x z c b T A I Y Y d d x x x N x b d d e 0 e d q 2 ~ y 9 : y , - ",
": 1 9 9 9 p y.I R I Y | ) )  .@.../ | R R G U U U V ' N V / G U c x c d Y I T ) A d d f f M N f V e e d e d d 2 : R % - % % ; & ",
"< 9 s x x N p.V R ~ U R / | T / / / ~ R R R U V V b V R R V I c c b b p z A U A p p p u p x f p s q w w 0 w , : , ~ 9 > > , : < ",
": p x N V U t.M x V V I T | / / ~ U R R U T / A x x x V R V V c z c x z z b x x p p p u p p y 9 9 9 , , 9 , : & < U s s s p 9 - ",
"% 9 u p x x #.a x U R N I R U V R N I R V Y / V x b x z U V b c x N b c x x s p p w y u u w 1 , , , , , , , ; & : B 6 , > 6 6 - ",
"- u s x V B _ p l V U B V V U V U N V V x V A c x b z p b x b x x c z p q w w w w 9 9 y u 9 1 1 , , , 8 , , : ; < j y a i y 6 # ",
"% : - % : : x y p l V b N x V N N N x x x x x x x x x s s s x p z p w 9 9 9 9 9 9 6 6 9 y 9 6 9 6 8 , , , : ; ; , y % % # - > ; ",
"% 6 u p x j B y u a b N x s x x s x x s x s p x s p x x s p c w a q w w 9 9 w w 9 6 , , , , , , , , , : : - % % : u , > > > , * ",
"# 6 u 9 s B J i 9 y l B x x x x f x x s x s p s p p p s x p s w 9 9 9 9 9 9 9 9 9 9 , : : : : : , , , : - - % % < x l 9 i i y - ",
"O > > # > B J 9 u u a x u s x x x x x x s p p y y p w y x u w 9 9 9 9 , 6 9 9 9 , , , : : : : : : : : : - & % # < M i # - 6 y # ",
"+ < 7 O $ l M 6 > y y y p s p u u p p x y y 9 9 1 y : 9 u p 9 y 9 w , : , , : : : , : : : - , : - : - - - # - # - i y # O r > * ",
"+ - 6 X $ a n 7 < 9 : > 6 , y 1 u p u x p p 9 , , 9 : , 1 9 , 1 6 9 : ; : : : , : , : : : - : - % - % % % + % # < s y # O 6 > * ",
"+ - > O * a M r 6 6 u 6 9 p 9 u p u u s s s 9 , , 1 , , , y 9 9 9 9 , : , , , 9 , 9 , , : : : ; % - % - - % - # > j y * + 6 > * ",
"+ * > # < a n 6 # > < 6 9 : 1 : 1 , , 9 y u , : , , : : : , 1 : ; : : : : ; ; : ; : : : ; - - % % % % % # + + + < j i < - 6 > * ",
"O # < # < i j > i y N s M C p M M M M f N N f x f s f s p p s u u u p s p i y y p p p p p p y y y y y y 9 , > > - M i < ; r > * ",
"O # * O - y j > + # @ - - - - - - - < + - - + % - - - % - % - - < % % - @ + + + @ + % + @ % + + + + + + + + o + - B i - * 6 > * ",
"O # # O # 6 j < +   + . o @   @ + + - . @ +   +   . .   + . + - - o o + . . o   .   .     o         o     .   O - Z y # # 5 5 # ",
"X # #   + > s - O   + . o @   + . o -   % @   + o o o   @ . o - - o o + + o + . + . +   . +   o .   o     O   O * Z i # # 5 , # ",
". + # - # > a ; O   + . o + . + o o + o + + o +   o . . % . + - - o o + . + o . + . o . . o . o .   +   o .   O < B i # ; 7 : # ",
"+ - , 9 6 i j > O   +   o +   + o . + o + o o +   o o . + . + - % o o +   + o . + . o . . o   o O   +   o .   O , B Z k n j y < ",
"O + # - < > 6 < .   +   O +   + o . +   + o . +   o . . +   + % % . o +   + o . +   .   . o   O O   +   o o   O 9 a y 9 y 6 6 , ",
"O + O O + % - < .   o   . +   + .   +   + . . +   o .   +   o + +   . +   + . . o   .     .   . O   +   o o   O : < < 6 > # - - "
};
