/* XPM */
static char *_1711aaac7984d25af9e45f3c3625f9c3pbaPV3UPrDM3Sva[] = {
/* columns rows colors chars-per-pixel */
"64 64 211 2 ",
"   c #16365E",
".  c #1B395C",
"X  c #18375B",
"o  c #1D3662",
"O  c #1D3B62",
"+  c #1E3D6A",
"@  c #0D3775",
"#  c #0C3A7B",
"$  c #0B3779",
"%  c #113D77",
"&  c #1A3D74",
"*  c #153D7B",
"=  c #183F78",
"-  c #223D65",
";  c #233E6A",
":  c #283F68",
">  c #1F4063",
",  c #1D426D",
"<  c #154077",
"1  c #1C4374",
"2  c #17427C",
"3  c #1C447C",
"4  c #1E487D",
"5  c #234265",
"6  c #284567",
"7  c #25436C",
"8  c #2A456D",
"9  c #27486D",
"0  c #2A4A6D",
"q  c #244573",
"w  c #2A4671",
"e  c #254975",
"r  c #2C4A74",
"t  c #22457A",
"y  c #244A7C",
"u  c #2C4D7A",
"i  c #304771",
"p  c #314C75",
"a  c #324E7A",
"s  c #2F5177",
"d  c #2D517D",
"f  c #325177",
"g  c #33527B",
"h  c #0C3D84",
"j  c #0B3F8A",
"k  c #053B85",
"l  c #133D84",
"z  c #053B91",
"x  c #0D418D",
"c  c #154284",
"v  c #1C4583",
"b  c #1E4984",
"n  c #14448D",
"m  c #1C468B",
"M  c #17488E",
"N  c #1C4B8B",
"B  c #174984",
"V  c #1F518C",
"C  c #0A4094",
"Z  c #0F479D",
"A  c #0E489F",
"S  c #154693",
"D  c #194692",
"F  c #154A94",
"G  c #1C4B93",
"H  c #10479B",
"J  c #154A9A",
"K  c #1B4C9A",
"L  c #1E5094",
"P  c #1C519C",
"I  c #214682",
"U  c #234C84",
"Y  c #294E83",
"T  c #204788",
"R  c #234C8C",
"E  c #294F89",
"W  c #265185",
"Q  c #2C5285",
"!  c #26518C",
"~  c #2A538C",
"^  c #2E588C",
"/  c #335181",
"(  c #3E5986",
")  c #31568D",
"_  c #315A8E",
"`  c #3A5582",
"'  c #244D93",
"]  c #284F91",
"[  c #234D99",
"{  c #245294",
"}  c #2B5493",
"|  c #2D5995",
" . c #24549B",
".. c #2B559B",
"X. c #26599D",
"o. c #2C5A9B",
"O. c #325793",
"+. c #325C94",
"@. c #30579A",
"#. c #325C9C",
"$. c #395F9D",
"%. c #366096",
"&. c #34619D",
"*. c #39639D",
"=. c #0F49A3",
"-. c #1249A1",
";. c #1B4DA2",
":. c #1C52A4",
">. c #1754AD",
",. c #1A52AA",
"<. c #1E57B2",
"1. c #1E5CB8",
"2. c #244EA0",
"3. c #2455A3",
"4. c #2A56A2",
"5. c #2559A5",
"6. c #2C5BA3",
"7. c #2456AA",
"8. c #255BAB",
"9. c #2B5DAA",
"0. c #325DA3",
"q. c #335DAB",
"w. c #385EAF",
"e. c #385FA4",
"r. c #255CB3",
"t. c #295EB3",
"y. c #245FB9",
"u. c #345EB0",
"i. c #2E61A5",
"p. c #2D61AC",
"a. c #3462A4",
"s. c #3A64A4",
"d. c #3C69A3",
"f. c #3061A9",
"g. c #3666AD",
"h. c #3463AC",
"j. c #3D65A9",
"k. c #3A65AB",
"l. c #3569AD",
"z. c #3B69AC",
"x. c #2D62B4",
"c. c #2460BC",
"v. c #2C63BA",
"b. c #3365B2",
"n. c #3A66B3",
"m. c #3569B5",
"M. c #3B6BB4",
"N. c #3366B9",
"B. c #3C66B9",
"V. c #346ABC",
"C. c #3B6CBA",
"Z. c #3F71B6",
"A. c #3770BF",
"S. c #3D71BD",
"D. c #416BA5",
"F. c #426CAD",
"G. c #426CB3",
"H. c #416FBA",
"J. c #4371B4",
"K. c #4A73B5",
"L. c #4171BA",
"P. c #4373BC",
"I. c #4A74BB",
"U. c #4678BF",
"Y. c #4C7ABD",
"T. c #2867C4",
"R. c #2E6DCA",
"E. c #2B68C3",
"W. c #356CC3",
"Q. c #3A6EC3",
"!. c #336FC9",
"~. c #3D72C4",
"^. c #3F78C7",
"/. c #3571CB",
"(. c #3B74CB",
"). c #3F78CB",
"_. c #3771C5",
"`. c #3675D2",
"'. c #3B75D1",
"]. c #3C79D4",
"[. c #4374C2",
"{. c #4976C2",
"}. c #457AC5",
"|. c #4B7AC3",
" X c #4376CA",
".X c #437ACC",
"XX c #4A7DCB",
"oX c #567DC8",
"OX c #437BD3",
"+X c #4A7ED1",
"@X c #427ED9",
"#X c #4C82CE",
"$X c #5083CE",
"%X c #5985CE",
"&X c #4780D3",
"*X c #4B82D4",
"=X c #4681DC",
"-X c #4B83DB",
";X c #5385D4",
":X c #5186D9",
">X c #5789D9",
",X c #648BD6",
"<X c #4483E2",
"1X c #4986E3",
"2X c #4788E6",
"3X c #4D8AE5",
"4X c #4787E8",
"5X c #4A8AE9",
"6X c #548BE2",
"7X c #5592ED",
"8X c #649BEB",
/* pixels */
"F.! | U ^ ~ } R ' 0.[ ..s.@.~ ^ Q t Q Q +.J.G.g.L.Z.P.M.L.P.k.I.F.#.#.) ^ _ ~ #.{ ..K.0.G.j.} D.O.Q _ Y Q w / r w - - 8 8 - 7 a ",
"j.R } b W U ~ R ..R ' m ..a.U ~ y y Q U U | a.P.f.M.XXP.C.M.g.|.@.R } ~ U U 3 ~ { ] j.' z.s.! +.~ y Q t e + r ; p ; - 8 8 O + r ",
"s.R | b U U R R #.# ' l R j.b U y U Q 3 b N N Z.L.h.p.p.L.L.o.o.#.} $.$.O.^ U @.R ..K...o.R v %.~ y Q t e 7 u 7 p 7 - 7 8 - + 7 ",
"j.R } b W U W U 0.l [ ' ' s.~ U ^ W 3 b #.| m g.n.h.h.6.6.6.{ z.a.} $.%.+._ U @.R ..G.{ o.! b d.~ y Q y Q e / r r ; - 8 w 7 7 q ",
"z.N ! 3 ~ ~ W b #.' ..0.....| 3 ^ y = b j.k.{ L.h.f.m.f.f.6.o.Y.j.{ @.+.%.+.W +.} m { l z.F.| &.^ y Q y Q e a w r 7 ; w r w 7 7 ",
"z.m R 2 ~ ~ W 3 { ....e.#.' { 3 ~ 3 3 3 { { ' M.L.f.f.f.M.z.o.s.s.R } O.+.^ W &.@.' 6.m G.J.| &.O.U ^ y Q e u ; p w 8 w r w 7 7 ",
"z.R ! b ~ Q W b R } ......} b b ~ 3 I b m ' ' f.h.f.Z.l.6.L N F.#.R } } W 4 < } | o.P.6.G.s.} s.^ U Q y / r a 7 w w w r r w 7 7 ",
"F.' | U ^ Q ~ U ~ R @.m ..0.@ R ~ * R { #.k.h.g.M.3.P { f.f.o.F.z.0.F.D.+.b 2 #.{ ' k...J.F.} *.U 1 y t u r a 7 ; 7 w r r w w w ",
"G.R R W 1 y ^ 4 W } } R m R b 3 ~ v } m ' q.[ C.C.n n i.P.J.a.J.k.e.K.F.| ~ } &.} M M.M.{ c $ d.U 3 Q e q g p r 7 w O r ; p 7 7 ",
"z.R R W 4 y ^ 4 ~ | ..} ' ..} R } I } m ' 6.D h.C.3.9.n.M.z.a.J.k.} | } ~ | } | o...P.g. .o.N d._ U Q e + e ; O w w 7 w w a r r ",
"n.' R ^ y W ^ U ~ | ..' ' ..{ T ~ U } R ..a. .M.C.9.9.6.M.L.z.z.k.' ! R R | } | o.0.L.6. .l.o.&._ U ^ y q y q 7 w ; 7 ; w 8 r w ",
"G...{ ~ U W W 4 ! } } ' ' ' R * E U } { 0.k.q.C.C.9.9.5.h.M.f.k.a...#.} v U ! #...q.M.6.o.z.&.&.^ y Q y e u r r 8 O 7 o w ; r q ",
"n...R R U y y 3 ~ | ..} ....} v ~ ~ ^ ~ #.k.6.n.M.b.[.M.3.G  .P.a.o.j.#.b b N o.o.f.H.M.g.l.a.d.%.U ) y q e ; 7 r 7 w O p 8 a r ",
"n.4.' R ~ Q W W ~ | | ..0.s.0.] E ^ ~ } s.z.n.B.C.b.S.B.9.3.5.{.G.0.j.s.| | } | 6.a.H.P.M.k.a.d.*.Q ) Y e r q 7 r 8 w 7 p p a u ",
"G.e.} ~ _ _ ^ _ ~ } ....0.j.0.{ U ^ E } j.J.{.{.[.b.N.b.B.[.C.P.I.k.J.F.*.*.o.o.0.M.C.P.M.k.a.s.*.Q _ Q u d u a 8 8 ; w w a r r ",
"G.k.{ R ^ ~ W ^ } | | ..0.k.0.~ U O.R { s.G.P.H.C.[. Xb.b.[.C.G.P.z.I.F.#.o.| #.k.L.H.H.M.z.z.*.d.~ ) Q e u w r 8 8 - p 8 g r u ",
"H.6.{ } W U ~ ^ } { #.a.0.a.a.} R R | m o.|.M.[.[.B.[.B.h.h.h.|.h.P.k.o.{ | z.6.f.M.{.P.M.z.z.F.*.U ) t u u a r - O - 8 w 7 w a ",
"a.' c U 3 3 b b } { ....' L { V ! 3 b c 6.|.n.C.9.5.b.9. . ...G.h.6.G N } | o. .o.6.P.6. .X.! } #.b ~ 1 e e r 6 r 5 - 7 8 ; w a ",
"n...R ~ ~ ~ ~ U #.....{ N N { ! #.U ! N o.M.5.M.XX9. .3.M.L.f.f.n.n N ! | | b #.o.M H.6...N c s.#.U ) t y e r 7 r 7 7 6 7 ; ; w ",
"n.' m R ~ ^ ~ b | R R ' N N N B ! 2 N c N D h 9.m.p.M.b.6. ...J.a.l e.| { } # s.{ l I. ...' c s.#.U O.t u r r 7 8 6 8 p r 7 ; + ",
"k.' c b U ~ ~ 3 @.' ' 6.0.6.X.N &.b } | a.k.3.}.b.9.B.n. .{  .I.0.c j.} R +.% a...0.,X..} a.R } #.U ) t e e w 5 8 6 r p a r 7 ; ",
"n...R R ~ O.O.R #.} ..k.n.k.6.{ +.% 2 N a.M. .M.XX6.3.p.M.L.k.J.q.m a.! } D.b @.j...I.G.s.0.2 +.$.U ) t e e r 9 8 7 5 7 8 w w 7 ",
"a.{ R R ~ _ | U { m ' 6.{ G N N *.b } } z.M. .m.m.5.p.h.p.6.i.|.k.' a.@.+.d.R #.#.c m G.0.{ @ #.*.U ) 1 e r r 0 6 5 - - ; 8 7 ; ",
"k...{ } O.+.+.R #.] ..6.[ n N { ! b #.o.o.6.F m.[.6.9.b.M.l.f.I.a.} j.a.| ~ b a...j...z.} K.@.} #.b E & q q r 8 6 6 6 8 r r w ; ",
"k...@.} U U U R @.' [ w.w.5.{ M | b | { k.|.9.m.V.b.5.b.p.Z.6.Y.q.e.#.*.~ } 3 #.0.j.oXk.#.@.% | O.U Y Y e w r 8 8 7 7 7 8 w w 7 ",
"k.{ } ~ R ^ R R 0.' [ q.q.5. .L o.N | L k.{.5.b.S.b.5.p.9.M.6.I.n.a...&.#.s.R a.' e.oXq.' #.b @.#.R U Y e w w 7 r 8 - - 7 w w w ",
"z.R R U ~ +.~ R #.' [ 4.4.3.3.{ o.N { N f.P.5.x.~.N.8.9.b.S.h.P.n.a.0.a.#.&.R a...k.%Xk.' a.| #.a.E I y e e w - p 6 O O 7 w r w ",
"k.N R U W +.~ R @.' [ 4.4.4.3.G o.N N M 9.S.x.N._.x.8.7.b.[.M.|.9.a.k.6.! N c f.q.9.{.h.' f.a.#.*.U 1 1 q w 7 O p 6 - - 8 r r w ",
"z.' ~ W U _ ~ { #...q.B.b.h.9.{ o.{ G G b.[.V.Q.W.t.r.:.N.~.B.[.9.h.M.o.X.N N 6.6.D  .3. .f.k.&.#.U & & 1 q 9 O r 6 7 8 r a u w ",
"G...@.} ~ O.} @.@.4.w.C.B.b.q. .f.6. .5.B. X~.(.OXW.W.r.~.~.C.[.C.n.M.o.k.i. .6.g.3.3.p.n.g.l.a.j.~ I y e u p 6 8 6 0 p a a u r ",
"G...@.} ~ O.} @.#.4.w.B.B.B.n.5.f.a.4.9.C.~. X X-X XOXN..X X~. X XC.P.i.J.l.i.i.M. X{. X[.m.l.z.F.@.~ Q u g f r 6 8 i p p a u r ",
"z.{ { W Q +.} | e.0.w.B.b.C.S.m.o.q. .9.C.~. XOXOX(.OXv..X X~. X~.~.$Xl.Z.i.6.p.P XX*X}.S.b.f.z.j.| Y Y e e r 7 8 8 r p r r r a ",
"G.} } W W +.+.#...q.b.C.m.m.Z.f.6.o.g.3.C.~._.OX@X/.OXW.Q.XXN.[.XXS.}.P.z.z.6.i.p._. X*Xb.p.#Xz.G.@.~ Q e 9 0 5 0 9 f r r p r g ",
"s.R R U y ^ ~ } | a.h.n.n.b.l.i.o.{ 6.K N._.(.@X=X/.OXv.b.XX[.XX_.8.p.6. .a.0.g.p.V.A.V.m.p.{ a.s.' U y e 9 9 O 7 O w w w 0 5 0 ",
"k.R ! W W _ ^ } | a.a.9.h.p.X.X.a.' { D b.Q._.OX'.y.W.x.N.S.9.S.m.:.6.6.o.0... .5.V.A.5.S.L.c a.0.R 3 t e e 6 . 8 o 7 r r r O 9 ",
"G.} | ^ ^ %.O.| | q.q.3.9.9.L { k.} ..D x.V.W.(.(.-.,.r.b.h.F b.S.9.h.k.s.s.| { 5.~.~.7.S.U...a.e.' U y e 9 9 O p O 7 r g p O 6 ",
"z.{ | ~ ~ +.~ ~ | ..h.5.9.h.P  .s...0.[ n.x.v.(.-X<.,.J 3.n.5.C.XXh.g.0.#.s.a.k.6.m.x.C.g.X.0...k.} R Y q 7 9 6 r o ; w a r O 5 ",
"k.' { W W ^ W R 0.' B.h.9.C.5. .a.} q.{ m.x.v.(.OX_.~.;.3.XXP.L.}.b.M.a...@.} o.6.F P #Xg.c a.a.e.} ~ Y , , 0 0 8 O 7 7 r p > 5 ",
"z.' { ~ W +.^ | a.M M.M.3.C.p.L a.R ..' B.b.v.(.W.(.:Xx.3.P.n.n.{.M.|.G.@.{ N ' 6.F p.$XM.{ a.s.s.} R Y q 7 6 5 9 - w 7 w g 6 6 ",
"k.' { W ~ +.@.@.a.l M.M. .M.p.M s.R { G n.b.x.W.'.W.OXx.J F F H.XXP.|.z.{ { } k.g.h.;X}.M.n.} R F...~ Q t 7 > X - - w O 5 f 9 5 ",
"k.o.#.} W +.| } z.4.4.q.b.p.5.L a.N ' f.B.8.-.W.OXW.*X7.3.B. .C.$X ...0.R #.c a. .m.C.[.D l l #.F.@.~ ) d 7 O 6 7 8 w 9 r p r 6 ",
"k.' { ! ~ &.@.| ..{ q.B.m.p.9. .j.} ..g.[.C.t.OX.XW.OX:.t.;Xn.B.[.3.M.0.' ] m 0.g.C.C.}.L.G.e.0.k.' 3 y u 5 O O r r r w r r 0 6 ",
"k.N R R ~ +.} | k.q.u.b.9.9.m.Z.f.{ { 6.B.~.V.OX(.OX6Xr.x.;XB.S.[.9.{.......0.h.5.C.*XXX{.f.0.#.k.R * t u r 5 O r r r r 8 0 0 9 ",
"n.N R ~ ~ } R { ..6.B.Q.b.x.p.6.k.o. .3.C.+X(.=X`.`.@Xr.v.+XN.~.XX9.h.[ ..s.z.n.9.N.>X*X{.K 4.k.j.] 3 y d r 7 5 7 8 r r 8 0 0 r ",
"n.' } } ~ ~ R } o.4.9.9.7.9.9. .f. . .K v.+X(.@X@Xc.<.,.W.*XN.N.+Xx.3.6.' 6.4.n.b.:.x.V..X5.6.a.s.} U y u 9 5 > 7 9 w w 8 8 0 r ",
"k.' ..| ~ | } #.G.q.2.J J 9.V.m.6.{ P J x.(.!.].2XR.y.y._..XN.~..XW.b.{...{ G 9.m.:.:.x._.5.4.q.k...~ Y e 7 5 5 8 8 r r r 6 6 9 ",
"k.{ ..} } *.#.#.0.9.b.B.B.C.C.9.f.6.9.8._.@X].2X5X4X<X].(.~.V.XX.X). X|.n.6.f.p.~.).).OXV.b.h.G.k.#.} Q u e 9 6 r 8 r p a r 9 9 ",
"z...| { | D.s.| 0.q.C.C.C.~.S.p.p.6.p.x.~.@X].5X4X5X<X`.OX*X X X.X~.~.n.L.M.|.b.V.*X*X*XV.~.M.n.a.#.~ W u r 9 6 r 8 w a g p r 0 ",
"k.} | ! | | s.} #.o.g.B.N.V.W.b.9.6.9.x.V.].3X<X5X5X].].W.*X.XXX*XA.XXM.z.k.M.M.V.*X).). XC.P.M.n...| U e g 0 - 8 8 w r a g f r ",
"d.| | ! #.#.d.| a.o.g.C.~.(.Q.x.p.X. .p.V.].1X=X5X<X1X@X(.*X XXX^.5.p.P 6.a.z.h.~.&X&X).V.p.9.h.n.{ { 4 1 r 5 . : - ; 7 r a u r ",
"0.R ! N } ! #.! } G  .p.N.V.N.7.M. .G 5.V.OX=X3X`.T.@X>.C H J C.m.x j # { f.k.6.8.V.6X).5.P D k.M.{ R 3 , 9 O . p i 8 w p a r 9 ",
"s.{ } R | } #.! | {  .h.N.Q.W.9.M. .G 3.x.W.(.7X@Xc.@XZ z C x C.p.k j h } 0.f.6.b.8.:XV.x.{.[ ' H.{ R 4 q r 5 - i 8 - - 7 7 5 o ",
"a.R { R } R } N o.X.4.9.9.x.x.7.f.{ X.3.9.r.r.=X3Xc.=Xx.V.N.3.S.x.F 6...a.#.0.q.M.m.8XC.3.XX6...P.' N y e r 6 6 8 : - - w r r 9 ",
"a.N { R } N } b o.{ { 3.3.3.,.J q...f.6.b.x.-.!.OXv.OXV.t.3.F C.m.3.J.z.F.#.0.a.6.5.;X5.S P.a.q.P.G v y e r 5 6 i 8 8 w w r r 9 ",
"G.} o.| s.| &.| a.o.6.h.b.V.v.:.z.| o.{ C.~.,._.OX!._.W.3.K K P.h.{ z.k.j.| @.a.M.j J x  .%XF.m P.M c y e 9 - 5 8 8 8 ; - o     ",
"a.N ' { #.! | } #.{  .g.C.~.V.3.J.} N h C.*Xx.OXOXv.,.~. XXXh.g.p.n o.| #.~ } o.g.F N.m.5.G.z.s.P.M c y y 9 . 5 8 i p u w 7 5 5 ",
"a. .{ | #.a.&.! 0.o.o.6.5.x.x.3.z.a...o.S :.H W.-XA v.Q.C.M.D M.m.n J.J.} 3 } ..h.9.>XC. .a.' j.G...R 3 u g 6 5 8 p p ( ( a r 9 ",
"k.6...} { } } R o. . .X.5.9.7.F z.| ' f.S.#Xv._.OX>.OX*XXX{. .m.m.h 6.a.{ R #.o.g.K C.3. .k.m ' P.q.} y d g 6 6 8 i ; w r 5 r 9 ",
"k.6...} R R ! b &.o.o.i.p.m.x.K z...G 6.b.~.r./.3Xr._.W.~.*Xb.P.m.x f.a.} R #.0.n.K b.8.9.{.6.6.k...! 3 q r - - i w o ; 7 ; r r ",
"q.....0.| | | R a.o.o.h.M.[._.p.n.o. .3.x.V.r./.=X=.=.Z 8. Xb.m.b. .|.J.0.R 0.k.n.p.*X~.n.L.q.k.n.0.| U y s 6 9 8 8 - w r 8 u r ",
"a.....0.a.s.a.} &.X. .6.p.C.V.8.M. .6.b.*X-X/.`.5X1.c.W..X+XB.S.x.3.{.M.a.{ 0.M.b.m.:X X9.5.G { M.q.| U e r 5 6 : 8 - r p 7 r 9 ",
"n. .G ' { #.#.} a.o.o.5.5.p.p.P M.o.i.5.V.v.r.R.].1.E./.v.8.:.x.x.F  .G .. .6.h.p.x.+X~.x.p. .' M.o.} 3 , 5 X . i i ; r r 7 r 9 ",
"M.4.' ' R } #.} s.a.a.f.p.b.b.5.M.6.h.P :.A >.`.<X/.(.!.v.x.N.~.A.P 3.M  ...6.p.m.V..X).~.[.C.h.L.a.#.U y s 5 6 i p 8 a a w a r ",
"H.a.q.0.o.#.s.#.#.a.z.M.m.S.~.m.M.X.h.p.+X].].5X3X].].(.(.-X:X.X*XA.}.h.z.6.f.M._._.&X+X~.[.P.M.M.o.} y u g 9 9 : 8 8 g ` p g r "
};
