/* XPM */
static char *_18b03f65ee74654d5470e3b18af47927jVJjSOW1Gruntw9[] = {
/* columns rows colors chars-per-pixel */
"64 64 232 2 ",
"   c #5C0301",
".  c #5A0808",
"X  c #5C110B",
"o  c #630202",
"O  c #6C0403",
"+  c #650B04",
"@  c #6C0A05",
"#  c #6D0309",
"$  c #640B0A",
"%  c #6C0C0B",
"&  c #65030C",
"*  c #730404",
"=  c #7C0606",
"-  c #730905",
";  c #740509",
":  c #790609",
">  c #740C0B",
",  c #7B0D0C",
"<  c #780807",
"1  c #6D120D",
"2  c #661208",
"3  c #73130D",
"4  c #7C120E",
"5  c #76150B",
"6  c #640C11",
"7  c #6E0A16",
"8  c #740E12",
"9  c #7C0D12",
"0  c #760F1A",
"q  c #6C1412",
"w  c #6D1A13",
"e  c #6C141A",
"r  c #6E1B1A",
"t  c #641514",
"y  c #741412",
"u  c #7C1413",
"i  c #741B15",
"p  c #7B1A15",
"a  c #75151A",
"s  c #7C151A",
"d  c #741C1B",
"f  c #7C1C1B",
"g  c #6E221F",
"h  c #7C221D",
"j  c #76241E",
"k  c #6F1F21",
"l  c #7C1D22",
"z  c #781A22",
"x  c #6F2723",
"c  c #7D2423",
"v  c #7C2B2C",
"b  c #7A2725",
"n  c #820D0C",
"m  c #8A0C0D",
"M  c #830607",
"N  c #82110D",
"B  c #8B120E",
"V  c #92120D",
"C  c #820E12",
"Z  c #8E0E12",
"A  c #831414",
"S  c #8B1514",
"D  c #831A15",
"F  c #8C1A15",
"G  c #83151A",
"H  c #8B1619",
"J  c #841B1B",
"K  c #8B1C1C",
"L  c #941413",
"P  c #9C1514",
"I  c #941B15",
"U  c #9E1A16",
"Y  c #93161A",
"T  c #98161C",
"R  c #921C1C",
"E  c #9B1C1C",
"W  c #930D0D",
"Q  c #A31C1C",
"!  c #A51A1B",
"~  c #84221D",
"^  c #8A211D",
"/  c #81281E",
"(  c #92221E",
")  c #9B231C",
"_  c #A2231E",
"`  c #A9211E",
"'  c #841D21",
"]  c #8B1E22",
"[  c #941D21",
"{  c #9C1D21",
"}  c #911D28",
"|  c #A01F22",
" . c #AC1C24",
".. c #BA1D26",
"X. c #842423",
"o. c #8C2423",
"O. c #852924",
"+. c #8B2A25",
"@. c #84252B",
"#. c #8C252B",
"$. c #852C2B",
"%. c #8C2C2B",
"&. c #932424",
"*. c #9B2424",
"=. c #932A26",
"-. c #9C2A26",
";. c #94262A",
":. c #9C262A",
">. c #942B2B",
",. c #9B2B2B",
"<. c #8D322C",
"1. c #84322D",
"2. c #94312D",
"3. c #9B322D",
"4. c #953027",
"5. c #8B2C32",
"6. c #842A31",
"7. c #942D32",
"8. c #9C2C32",
"9. c #952730",
"0. c #8C3433",
"q. c #893839",
"w. c #943333",
"e. c #9B3333",
"r. c #9B3935",
"t. c #9B353A",
"y. c #953A3C",
"u. c #9C3A3A",
"i. c #943937",
"p. c #A32424",
"a. c #AB2424",
"s. c #A42B25",
"d. c #A92A25",
"f. c #A32529",
"g. c #AB252A",
"h. c #A32B2C",
"j. c #AC2C2C",
"k. c #B42425",
"l. c #B52A27",
"z. c #B4252B",
"x. c #BC252C",
"c. c #B32B2C",
"v. c #BB2B2C",
"b. c #BD2826",
"n. c #A3312D",
"m. c #AB322C",
"M. c #A63227",
"N. c #B4312D",
"B. c #BC312E",
"V. c #A32E31",
"C. c #AC2E31",
"Z. c #B42D32",
"A. c #BC2D33",
"S. c #BF2B34",
"D. c #A33433",
"F. c #AC3334",
"G. c #A43A35",
"H. c #AB3935",
"J. c #A2353A",
"K. c #AB353A",
"L. c #A43B3B",
"P. c #AC3B3B",
"I. c #B43334",
"U. c #BC3334",
"Y. c #B43934",
"T. c #BC3A36",
"R. c #B43539",
"E. c #BC353A",
"W. c #B43B3C",
"Q. c #BC3B3C",
"!. c #C51D27",
"~. c #C4242C",
"^. c #CA262A",
"/. c #C22B2D",
"(. c #CB2A2E",
"). c #C42727",
"_. c #C3312E",
"`. c #C8312E",
"'. c #C42731",
"]. c #C32D34",
"[. c #CA2D34",
"{. c #C32F38",
"}. c #CB2E39",
"|. c #C92633",
" X c #D12D33",
".X c #D12D3B",
"XX c #C43235",
"oX c #CA3335",
"OX c #C33935",
"+X c #CA3936",
"@X c #C4343A",
"#X c #CB343B",
"$X c #C33A3C",
"%X c #CB3A3C",
"&X c #D43136",
"*X c #D2343B",
"=X c #D23A3B",
"-X c #D8393C",
";X c #DA3438",
":X c #9C413B",
">X c #AD413E",
",X c #A4413C",
"<X c #BB423C",
"1X c #C3413E",
"2X c #CB413F",
"3X c #D4403C",
"4X c #9B3B42",
"5X c #993641",
"6X c #A53C41",
"7X c #AB3C41",
"8X c #BD3C41",
"9X c #B23E40",
"0X c #C33C41",
"qX c #CA3C42",
"wX c #CA3A43",
"eX c #D43641",
"rX c #D13B43",
"tX c #D93743",
"yX c #974142",
"uX c #AC4343",
"iX c #A74647",
"pX c #B34446",
"aX c #BD4244",
"sX c #B14B4B",
"dX c #B94A4A",
"fX c #B94550",
"gX c #C34145",
"hX c #CD4143",
"jX c #CA4749",
"kX c #D24244",
"lX c #DB4141",
"zX c #C64C52",
/* pixels */
"$XE.a.@X@X#X}.'.}.eX[.{.#X].@X@X/.`.b./.XXXXXXXX%Xv.XXoX/.%X`.`.#X'.E.@XeX|.].OX@X#X~.*XA.c.#X#X@X@XU.@XXXU.XXoXXX%X'.[.].eX}.}.",
"E W.Q.Q.c.Z.A.wXZ.A.z.c.A.g.g.g.U.N.$XT.c.j.Z.g.Q $XI.c.c.c.Q OXz.c.p.p. .#X$Xj.E a.#XqXI.Q.a.! f.R.f.jXI.T.c.N.z.! A.qXv. . .kX",
"u o @ 3.dXH.n h.H K S ,.D.^ D u A o.G.K 8.J ; 8 G J.u ] K &.u S F.R =.> R { H.D * , Y S 5 3.:.:., J D o.,.4 ( N s.S *.*.M *.K :.",
"O.i 1 + u +.@ 3.D u 3 >.u.O.f h >.% 7.a s X.5.@.#.5.o 7.X.t.w.J pXD %.p &., >.p p 2.,.^ 3 2.>.J h X.h p e.O e.D D.o.,.&.u L.L.o.",
"i X.w.h X.2.@ >.e.o.u >.r.o.O.w.a ' 4Xl t.@.& 7 #.t.0 iX#.#.7.o.7XK p r.S K o.e.> D D.K u iX>.o.X.$.y ~ o.4 D.-.,.K =.pXK 8 o.' ",
"f % y 3 ' e.8 e.>.K u o.7.u y f u % >.J s ' t.t.s 6Xu e.>.s 8 s ,.A u o., A &.G.,.J pX9 O uX, K f c f J >.S H.h.S , A dX&., J.uX",
"O ~ e.^ D D.A u K J A >.,.u > u D =.=.D D 4 > u , 3.4 ^ 4.3.=.&.3.A K 4 &.n ,.3.K , :.N - L.A A u 3 X.3 ,., *.S K.f.R V., - o.J ",
"F.F.W.W.j.W.j.8Xj.h.*.C.F.*.*.F.M.M.s.m.m.Y.Y.s.s.N.) ) I M.<X) W.{ E h.W.h.C.W.W.aXh.h.*.C.R.&.3.e.D.G.D.p.p.| E.g.C.W.E *.h.D.",
"S.@XS.S.@X].{.'.].#X#X].].@XS.@XB.+Xv.XXv.+XXX`.XXXX/.+XB.OXv.U.XX@X].XX@X@XS.].].#X].XXwX@X@X%XQ.Q.U.%XXXXX#X[.#X].#Xx.XXkXA.OX",
"].XXXX].#X#X'.[.#X].'.].XXrX@XXX@XXXoXkX/./.[././.oX%X/.oXv.%X@Xv.A.#X].XXU.@XXXv.%X@XXX'.].A.XXv.E.U.OXXXS.XX].XX#X].].A.v.v.].",
"c.j.I.I.I.I.Q j.j.I.T.gXp.j.j.j.W.*.F.I.f.j.gXE.Z.Z.g.| R.F.W.h.Q.m.$XI.I.m.<Xj.j.m.) p._ $XQ.R.m.H.h.m.Q.m.j.j.j.j.j.Q.1XI.Y.I.",
"= = S S R F.K *.n R -.P.N n F K ] 9 ] 9 K [ F.[ H :.: K ] J G 9 e.F f.R F D h.n *.&.N ^ n -.D D F ) ^ A -.4 A J u A ( &.F S S I ",
"R R &.K &.pX=.>.K A , ,.K &.=.s 8 s 7.s 8.G 9 A : 8.G 8.' # 0 ' o., h.[ J u G.R [ ,.3.>X*.*., &.F -.h.K ,.O s >.s u D.K , &.) W.",
">.>.K G D J.s u e.' y o.w.w.r.f a c 4X@.t.y # >.u L.>.w.t.& @.$.J > ,.:.u > e.,.K J ~ >.:.:.8 e.V.:.8.K 6Xf %.$.h $ w.K G P.*.h.",
"@.@.y X.c y.c c c l a c 0.r @.q r r 1.q c h p 2.1 :Xi d 1.. v r 0.f 8.J.X.d e.t.J.#.a a t.K.u w.8.A J > w.$ k X yXr 5.O.o.6XK C ",
"7.>.8 >.o.#.a f y s f X.u.y X.1 i i +.@ p ,Xr.^ O sX5 p 3 + X.p 2., C [ K J o.] A u y > K.P.8 ;.V.E K.] e.o X.u w.u o.o.G =.h.F.",
"a.V p.I.Q $XE I j.c._ j.c.g.p.I I E c.U E d.s.V c.N.N.s.F I L p.c.k.2XQ p.V I.N.L g.d.j.j.U.Q U P a.I.s.j.E OX#X#Xk.c.g.I L Q U.",
"%Xv.$XXX=Xv.hXv.oX+XU.OXoX/.XXB.U.XX=XlXv.v.1XOXXX/.v.l.U.OX@XoX=X/.b.v.XX+X+Xl.%X%XoXv.XX#XoX+X/.XXU.U.$XXX[.!.!. XoXoXU.U.OXU.",
"].%XU.@X].].U.E.x.#XU.c.].].%XOXv.kX..[.#Xv.c.OX].#XrXU.0XI.S.v./.[.oX=Xv./.XX@Xv.v.qXA.%X].v.].].%XU.U.E.U.[.|.*XtXx.@XqXU.U.c.",
"Z.j.aXp.0XE.f.K.qXZ.f.R.gXa.g.Q.W.I.A.S.I.Q.gXC.Z.@XZ.j.R.W.E.E.%Xv.A.U.@Xc.U.Z.E.c.E.c.$X$XA.E.Z.E.I.F.8XZ.E.@XS.S.z.Z.E.j.Z.aX",
"s u f > o.,.@ p K.V.J p D.K D 4 D 3.dX[ P.o.o > [ W.K K y o.8.aXf.*.V.f.&.A *.H.K , G =.G.9Xn : S J K A uXD p - &.K.zXh.A K > s ",
"d <.. c ~ r.i i o.#.i 1 r.7.%.f %.o e.> f h O.w.s 7Xs J   y 8 ;.,.J A o.D D K e.>.^ K s u 7.s >.J ~ >.s iXy d w 1 % 8.K G 8.s f ",
"X.$.c i w.o.$.f D O o h sX8 u r.h y D.K e.~ $ + ] K.: J O.w.J C &.&.D.G.o., &.pXD K r.] G ;.A >.f X.o.8 J.% h O.0.% [ :.f.7X>.s ",
"p i %.i K %.1 i A >.<.h J.A D X.@ u e.K u X.w.X.u pX&.~ i 1 G &.D.A =.&.>XA =.&.A > &.> K >.D o.X.~ u C P.~ h j i 3 :.f.T F.e.@ ",
"3 i i.1 ~ 2.+ + J D y <.J , o.3 / @ 3.u u 1 i ~ - uXo.3 + h s D D.4 D D >.4 K ^ p D > o.> o.p e.2.u o.S dX+.2 2 h 3 R C.f.S >.O ",
"D.G.L.3.*.K.J D F.Q.,.3.F.I S K 3.^ m.s.P.G.=.J R K.&.&.>.uXG.F.m.) h.m.m.*.h.m.S R *.n.-.D.=.n.S F F.R :.( o.4.G.n.j.U.@Xg.K.-.",
"@X@XA.@Xx.#X$XE.].%XA.c.rXXXZ.qXE.OX#X/.A.U.Q.$XXX#XXXU.T.Q.Z.].%XoXXXoXv.v.oX%XA.S.%Xv.@XU.E.U.%XA.wXXX].qXhXU.E.#X'.~.tX'.S.@X",
"#X'.#X].|.(.%XA.}...S.U.'.'.].].].XX~.(.XX@X@XA.[.'.#X@XE.E.S.#X/./.oXoXoXoXoXx.eXXX#Xx.].].@X@X].'.].#X'.A.Z.].'.}.[.[.tX[.S.XX",
"@Xz.jXE.@X%XQ.I.wXA.8XaXE.E.Q.I.I.@XXX#X@XE.Q.I.@XZ.Z.I.W.W.R.U.U.c.$Xc.U.c.hX$XZ.Z.E.0XQ.Q.Z.I.A.E.Z.I.gXT.Z.@XwX].S.A.Z.U.E.Q.",
"Z M R *.T f.C F Y { ( ( :.*.&.*.R T c.a.Z M R *.I.Q.f.V.3.&.&.*.*.I s.B L M p.h.S E E f.H *.n C F.W.&., G.,.p.E ! L C.aXD.D.&., ",
"V.&.J D.h.R > J K K f X.K s X.u G.n C.C.h.=.o., S V.C >.O.y D >.&.D ,.D.G.K ( R R D.,.&.u >.K D >.=.<.+ O.O &.Y Z.E J J % h p p ",
"L.&.u w.dXJ O.i.o.y f i.y p iXy sXu K.:.K D +.X.A ,.o +.<.i u ~ e.u > o.>.>.,.n., >.e.D > 2.+.f %.  +   i.% D.H K.,.>.%.b 0.i y ",
"H.L.% p D &.f h O.1 D o.f %.t.J p y D.;.J ~ h 1 J D.u 2.:X<.@ ^ >X=.G.> D ,.W.9Xo.% e.e.> w.% c % w.2.f 2.D D.,.S * >.>.p O.O.%.",
"S h.J >.S K ^ >.+.D &.=.D o.J.,.%.@ L.A , J u p , F., D f +.K =.h.n &., N :.E.C.u y D.=., e.y % o o.] J ,.S h.h.:.S ,.&.u A s s ",
"p.h.K -.L { :.,., S p.h.R S H m W.R Q.T R R &.:.T Z.Z W.,.D n E Z.m E R S j.S. ., u h.{ S V.o., V.P.*.*.h.m m M I.p.f.f.*.*.:.&.",
"#XU.Z.gXXXqXQ.j.R.Q.@X@XE.Z.A.@X0XE.S.@XA.g.0XU.{.rX@XE.F.T.E.@XhXA.E.Q.E.qX#X{.F.h.E.@XE.E.Q.W.R.8XZ.Q.0XE.@XOX@X@XU.$X0XQ.8XE.",
"[.'.S.@X..'.XXXX@X].~.~.XXXX|.*Xv.XX..*X].'.@X].|.!.eX..A.@X}.'.'./.v.A.@XXX!. X$XI.].}.].x.S.$XA.wX@XXXv.b./.[.[.[./.].].x.S.Z.",
"#X@X0X$XS.@XE.$XA.A.'.oX%XXX~.'.%XA.rX[.S.rXz.@X#Xx.rXXXjXE.S.].].OX$XU.$XXX|.*XI.W.@X].A.%XE.I.E.I.Z.c.@XOX%XXX%XXX@X@XS.E.0XqX",
"K K e.J.pXW.K 4 3.n.R.R.h.*.j.Q.( N C.m R -., F Y I.f.S A ,.aXW.n.-.G.4.=.( I.p.u O.&.R R W.=.J 2.p ^ ^ G.3.-.F s.S *.&.F ,.n.D.",
"u y i i >.3.f ~   - ,.D.~ 5 D =.p u D.A L.e.r.>., P., K + + o.3.=.5 +./ i 3 F.A 1 i 3 4 u L.u 1 1   h ~ <.5 D ^ 3.4 =.o.4 ^ K J ",
"X.c j c J L.y y %.~ O =.=.~ 4 >.%.u ,.K A D X.J.H D.S u X.X.@ J ,.o 2.O.i p ,.A h b e., ] pXX.y X.c y %.>.> e.D H.G.K ,.,.> G D ",
"a o . d o.J.y f ~ o.A D.<.X.J L.+.$ D.&.J.s X.%.8.P.K u X.$.s ;.=.u %.:Xy y :.] f i >.A , uX>.O.f f O.s o.s P.>.A < ,.;.&.;.> u ",
"O.c g b %.sXX.i % y > >.<.<.>.,X$.y J.&.w.3 % % J.uX>.u 1 1 > o.r.p y 2.h s 8.u $ 2 %.e.: J.' a a % O.> o.K G.,.,.u e.u > r.#.r.",
"u ~ f y J P.o.u e.e.R :.~ p > - D o.D.[ A K J A dXF.H A %.r.,.[ :.S =.^ J > C.[ X.X.D.V.C V.&.;.e.K o.K ,.S S n h.*.:.R C &.D.;.",
"Z.j.h.F.Z.@Xj.E.Z.Q.E.0XF.F.R.R.F.Q.qXS.g.8X8XE.A.S.E.I.K.R.Q.@X@Xc.jXj.F.j.wX@XW.P.0XS.A.0XE.gXgX8Xg.Q.0XZ.A.z.@XXXA.%XZ.Z.0Xp.",
"XX%XQ.E.oX[.].@XA.].'.#XZ.I.@XS.$Xc.[./.#XA.E.z.#X[.#X].0X$XXXx.oXx.XXv.U.hX/.x.j.F.OXx.#X@Xz.A.a.%Xk.].].].=X+X*Xx.'.].x.A.XXU.",
"b._.B.v.oX*X%X_.oXXX|.+XE.U.%Xv.B.l.[.[.%X_.+XoX).|.oXv.OXB.oX+X[.XX+X$XOXB.^.+X<XT.U.XX/.%X@XOXU.kX%XXXXXoX/.oX`.).=XXXXX%Xv.OX",
"OXl._ N.oXk.! U a.k.A.U.Q L g.p.d.T.v.b.W Q d.d.@Xv.! W m.m.a.Q OX` P U Q.U k.a.B N L c.L j.{ m h.T j.p.U.c.L d.c.U.U.a.E p.f.R.",
"R * 4 D *.K.=.3.M K K ,.K G.=.u J < W.K.( K A , f.*.< D 3 3 y # V.O D.&.,.A [ K o.#.# 6X' %.8 X.O.1 r o J.9 $.  q >.K.V.$.q $ X.",
"&.>.w.s &.pX%.y o.J a %.u s y h <.3 3.&.D X.%.%.J >.>.yXq.X x X.t.' 7.L.;.u >.>.8 5.%.y.d 5.l c a 6.g r #.s r x x $ } fXy.x g r ",
"#.#.$.l 8.6X' a 9.] a 5.' s s r.c q e.8.>.#.c a s 7.@.$.1.. b c sX=.< ,.,.9 :.8 o.>.;.J a w.a o ' :Xf f D.,.y $.<.u [ K.>.o   1 ",
";.J a ' J.8.a $.9 G y l ' ] ' t.@.y ;.] J a f a ' 7Xl e b t 6.f uX&.S *.D.* D.K [ K ,.o.A e.K 2.^ =.A < P.&.> > O , *.R.F.=.h h ",
";.>.K u ;.;.y u A ;.' X.&.:.o.7.%.s &.H s u #.%.8 6X' f r t d y >., , F :.N :.&.F A K ^ , =.4 >.( ( h.S F.F K D G.K *.p.M A +.+ ",
"R.aXW.F.8X8XD.:.E.E.F.K.R.I.C.K.:.:.R.I.F.:.D.D.j.gXC.P.r.2.,.F.<Xp.E m.Y.aXI.F.Q.W.j.R.p.aX*.*.R.j.$XU.c.j.F.H.R.j.E.qXZ.j.3.=.",
"/.v.v.XX*X[.XX]. X(.[.XX[.[.oXoX+XXX&X[.oXv.+X#X*X|.).XXU.U.A.@XA.oXoXqXv.S.v.#Xz.#X%XwXv.@XE.%X@X'.'.[.x.*XU.@XU.#X'.~.[.z.j.jX",
"=XoXXXoX[.[.%XoX^.(.+XoX(.&X-X/.`./.^.^.oXv.oX/.(.^.-X/.OXOXoX/.XX@X@XXX%XA.#X].wX@XS.S.@XS.@X@X@X].#X].}.*XZ.Q.$XS.'.}.@X$XQ.R.",
"s.s.s.F I.j.F -.E.c.V j.c.` P j.m.Q.U.XXT.I.d.) a.B.N.m.s.M._ T.Q.*.*.m.:.j.R.j.Y h.C.aXR 9X,.V.f.h.S W.Z.c.R 3.D.F.wXE.:.e.3.^ ",
"- D 3 3 ( >.@ 3 P.D.J J n.*.K 4 A 3.h.Y &.A - A S j.n &.4 3., n =.- u 4 ^ A =.A , A > A ; >.> > K A s - 8XE +.1 h J C.j.> 2 1 i ",
"X.%.i d #.t.d c ' 8 $ i u.o.X.X.X.y 8.G J X.$.X.G V.# >.c iX;.;.>.s =.K >.K e.&.D.e.u s u r.f X.,.K i J zX*.X.b c y { Z.3 w w h ",
"v b 6.6 @.0.k k z a r $.4Xl c q.e z 5Xs 5X@.. 6 #.t.a y.0.@.' >.' K o.o.u u o.8.o.>.u y a w.a X.J o.1 +.K.[ 1 1.O.y [ W.i b j O.",
"a q q.r @.w.X t a 5.v v v l r x v 6 y.a e d q.y.f 7.a y.0.i y s o.=.>.+.u D >.L.> J y p f %.% i 1 %.<.1 D.K c j w 3 [ C.@ i w i ",
"J G e.X.A 8.o 3 K ,.s %.o.J y f f ' 8.J #.f % y A 8., ;.X.r.;.:.=.K &.N &.S ,.D., A > 4 D %.y p J >.=.- h.S D 1 ~ K { g.S >.~ h ",
"%X@X@XU.k.oXa.c.%XXXa.U.$X! U j.R.| Z.S.c.I.Q.j.k.XX! ! Q U.k.v.v.a.c.Q U.g.U.Z.Z.j.p.p.p.R.V.F.Q.Q.g.A.@Xz.p.h.I.c.x.x.{.qXI.F.",
"^.(.).^.;X^.=X/.^.&XoXv.*X).oX+XXXXX[.*X/.v.OXXX(. X-X).3X/.). X[.%X#X#X#X#X].@X@XXX@X0XZ.0XE.E.c.@X].].}.@X@X@X@X#X.X|..X].z.0X"
};
