/* XPM */
static char *_c16f4c388ec458a93442ea155ab7374Q5SBzysx4S8rbtTM[] = {
/* columns rows colors chars-per-pixel */
"64 64 235 2 ",
"   c #1B0C02",
".  c #150A06",
"X  c #1D1403",
"o  c #1F1900",
"O  c #1D130B",
"+  c #1C170B",
"@  c #1A0E12",
"#  c #1D1313",
"$  c #210E07",
"%  c #231404",
"&  c #231B01",
"*  c #2A1D03",
"=  c #23150B",
"-  c #29160C",
";  c #241A0C",
":  c #2A1C0C",
">  c #2B1705",
",  c #321D08",
"<  c #231513",
"1  c #251B13",
"2  c #2A1D14",
"3  c #24141B",
"4  c #29151B",
"5  c #261C1A",
"6  c #2B1C1B",
"7  c #281614",
"8  c #311D1D",
"9  c #301D15",
"0  c #220F11",
"q  c #252102",
"w  c #2B2304",
"e  c #26210D",
"r  c #2B230C",
"t  c #2E2909",
"y  c #332303",
"u  c #3B2502",
"i  c #33250C",
"p  c #3D260A",
"a  c #332B0C",
"s  c #3D2C08",
"d  c #252114",
"f  c #2C2314",
"g  c #2D231B",
"h  c #2D291B",
"j  c #2E2916",
"k  c #322415",
"l  c #332B14",
"z  c #3A2D12",
"x  c #33241B",
"c  c #342A1C",
"v  c #3A2C1C",
"b  c #382619",
"n  c #3C3314",
"m  c #34311B",
"M  c #3B331C",
"N  c #3E391C",
"B  c #393615",
"V  c #39310D",
"C  c #2B1C22",
"Z  c #281A23",
"A  c #331E27",
"S  c #2E2323",
"D  c #2E2922",
"F  c #2F2428",
"G  c #332523",
"H  c #392724",
"J  c #342B24",
"K  c #3B2C24",
"L  c #34252B",
"P  c #352B2A",
"I  c #3B2C2B",
"U  c #392628",
"Y  c #363124",
"T  c #3C3224",
"R  c #3E3922",
"E  c #36312A",
"W  c #3C332B",
"Q  c #3E392C",
"!  c #3C2D33",
"~  c #382632",
"^  c #3D3332",
"/  c #3F3933",
"(  c #3E313A",
")  c #432D03",
"_  c #442C0C",
"`  c #453100",
"'  c #4D390D",
"]  c #493409",
"[  c #513B0D",
"{  c #412C13",
"}  c #442E18",
"|  c #453313",
" . c #4C3414",
".. c #4C3B15",
"X. c #44341C",
"o. c #443B1D",
"O. c #4C3A1C",
"+. c #463719",
"@. c #563E14",
"#. c #533E1C",
"$. c #583C17",
"%. c #412E24",
"&. c #422F2A",
"*. c #433424",
"=. c #483725",
"-. c #433B26",
";. c #4A3B24",
":. c #43342C",
">. c #49352C",
",. c #433A2D",
"<. c #4B3C2C",
"1. c #523E23",
"2. c #513E2B",
"3. c #412E38",
"4. c #433533",
"5. c #493433",
"6. c #453B33",
"7. c #4A3C34",
"8. c #44343A",
"9. c #49353C",
"0. c #463A3B",
"q. c #4A3D3B",
"w. c #523E3C",
"e. c #57440C",
"r. c #46441A",
"t. c #554214",
"y. c #54431B",
"u. c #584818",
"i. c #4D5416",
"p. c #545C1A",
"a. c #505714",
"s. c #624D1A",
"d. c #685216",
"f. c #604B0C",
"g. c #57611C",
"h. c #464224",
"j. c #4A4325",
"k. c #4D4A24",
"l. c #47412D",
"z. c #4B432C",
"x. c #4F492D",
"c. c #544224",
"v. c #5C4522",
"b. c #54442C",
"n. c #59452B",
"m. c #524A2D",
"M. c #5B4A2C",
"N. c #5A4924",
"B. c #535524",
"V. c #555B23",
"C. c #53542A",
"Z. c #5B5A2C",
"A. c #595A29",
"S. c #464235",
"D. c #4B4334",
"F. c #4D4932",
"G. c #4C433B",
"H. c #4E493C",
"J. c #474338",
"K. c #534433",
"L. c #594635",
"P. c #534B34",
"I. c #5A4B34",
"U. c #51443C",
"Y. c #5B473B",
"T. c #544B3B",
"R. c #5B4C3B",
"E. c #555034",
"W. c #5B5335",
"Q. c #56513B",
"!. c #5C533B",
"~. c #5D5A35",
"^. c #4E5124",
"/. c #614D35",
"(. c #604C3C",
"). c #605434",
"_. c #63533C",
"`. c #645C3D",
"'. c #675838",
"]. c #71572F",
"[. c #616533",
"{. c #60652D",
"}. c #4B3D43",
"|. c #483A41",
" X c #513D43",
".X c #4D4342",
"XX c #4E4446",
"oX c #524543",
"OX c #584641",
"+X c #544A44",
"@X c #594C43",
"#X c #534648",
"$X c #554B4A",
"%X c #5A4C4B",
"&X c #5B454C",
"*X c #5B5343",
"=X c #5C524C",
"-X c #595341",
";X c #5C4B53",
":X c #574C50",
">X c #5C5452",
",X c #5D5855",
"<X c #624D45",
"1X c #645B42",
"2X c #6B5D43",
"3X c #61544D",
"4X c #645847",
"5X c #624F56",
"6X c #635355",
"7X c #645759",
"8X c #696342",
"9X c #746443",
"0X c #81693C",
"qX c #846D41",
"wX c #937F52",
"eX c #8C7A52",
"rX c #978347",
"tX c #968559",
"yX c #AA9848",
"uX c #B19B4F",
"iX c #B49D53",
"pX c #A89355",
"aX c #B9A655",
"sX c #998867",
"dX c #A79675",
"fX c #B6A377",
"gX c #BCA964",
"hX c #C1A95B",
"jX c #C1A774",
"kX c #D4C17F",
"lX c #E6D47E",
"zX c #B7A686",
"xX c #CAB587",
"cX c #D9C488",
"vX c #E9D48A",
/* pixels */
"R -.c = J 6.H U I H K %.b - - x L ~ G 6 x M c ; 1 g F Z L L 5 U :.  K c g 5 # 5 5 P I S 6 H I K f ; - c W I U I U I :.x f T R M ",
"T T.K X :.%Xw.w.4.4.&.K b b %.7. X}.oXU.:.f l ,.^ ^ .XXX0.I K @XU.T :.W G.G.q.E 4.D G G.%XU.6.7.D.v k K :.I :.q.oXOXOXJ = T T.-.",
"c K ,.c ; K OX7.G G x x J 6.K.G.7.7.J ; f 6.G.4.oXXX;X#X7.7.;.z.<.*.*.D.=XD.oXoX/ 6.W 5 < K U.@XT.D.,.W x g G I 5.OXK = K ,.v c ",
"; = c :.1 2 U.G.q.7.4.6.U.oX7.J k ; 2 T T.@X+X#X}.8.! U <.z.c.9X_.D.D.T v J G.4.G.oX=XoX:.g 1 2 J G.+XG.4.7.G.D.7.G.2 1 7.T X = ",
"c :.; ; K 2 2 T :.T K W W H G 2 T *.z.D.T g F ! ( Z @ J R.+.N.xXzX<.<.<.k = f W J J J W 7.G.,.c 5 J W W W W Q T ,.1 ; J 1 2 6.x ",
"7.=XK 1 2 1 g f 1 1 2 2 < < G 4.D.z.R c Q +X:X}.! F < K _.c.t.sXsXk b.R.*.= ; ,.J.*XH.h 5 6.@XoXq.S # 5 g f 1 1 c f = f 2 :.3XI ",
":.G.oXG.2 c 3XS.D.J.7.W P ^ q.oXT.c f 6.+X4.5 # L L G f ;.M.y.y.X.;.<Xv 2 c T g O g 7.=XG.g g 7.$X0.E E / J.J.G.S.*Xc x OX@XG.g ",
"I q.q.U.T g H.Q 6.6.Q E 4.#XXX^ O J T.+X7.I P I G 5 x ; % ;./.M.L.Y.%.- x = g J 4.J J G.=XH.J 5 ^ $X$X^ J J.H.6.,.D.g Q U.7.q.G ",
"I 5.I 7.,.+ D.S.S.d X 7.=X%XG 7 4.$Xq..X.X%XG.oX@X,.:.k % % k 4XY.2 $ 2 x K q.+X%XoX$Xq.oX%X=XH 5 J %X=X+X+ h J.J.Q c ,.,.:.q.G ",
"H 4.G 7.K d J.J.h Q Q T T 2 6 7.%X%X9.0.4.7.H.=XT.T.-XD.:.:.8 H K x K :.4.oX%XoX.XoXoXq.4.6.=X3X4.g g W Q Q T Y T./ + ,.6.x 7.x ",
"I 4.6 q.J J 6./ . Q *X7.U.9 2 %.4.U G G S 7 J T ,.z.T.T.@XoX! A G H q.%XoX%XoX4.G G 5 G G x H 7.T f c D.6.*XY + J.S.+ 7.6.7 7.J ",
":.W g q.W g E E W Q 6.<.R.2.<.<.7.K I 4.I < J 1 f f ,.@X@X}.8.8.4.I 6.%X%X0.G 5 g G   K 7.:.*.<.K.<.K.K.D.T.T 6.D W g 7.6.g :.J ",
"x x K 7.W O P / =XT c K.b.M.n.1.I.I.R.@X7.5 7.W ; c D.*Xq.4.9.9..X4.W q.oX6.g < :.7.2 7.R.L.R._.b.b.I.;.R.,.Y 7X^ D g ^ q.W x k ",
"% k G.G.W # / $Xq.5 2 (.b.1.| _ u | X.K.:.= 0.+XW H.*XG.J 4.%X0.q.U.6.W D.OXD.T U.<.% *.b.} O.{ p | c.b.!.2 5 +X,XP 5 E oX7.: f ",
"; *.U.6.J P XX#XI g 2 *.1.| $.0Xs.t.y b.7.< I #X#X+XJ.,.Y D.3XW K T.T.Q ,.G.T.@XK.v % ;.b.p c.#.].v._ c.<.= G W ,X.XD P H.G.v f ",
"c D.,.J 5 .XXX^ < W 7.} n._ ].xXkXrXu N.K.< 6 0.=X7.J ,.D.T.T.= x G.-XD.T c ,.4X*.: > b.N.) wXfXxXqXy M.2.>.6.. W >X^ S W G.D.2 ",
"J 6.U.g J %X4.< ^ %X5.>.2., v.jXvXyXu t./.- I < :.2 ,.D.Q.*Xf f f c T.D.P.R f K = x k M.s.` uXvXcXs.u N.=.7.3XW 5 4.=XS g G.G.J ",
"J G.Q g W q.W P oX&XH &.(.O.v.rXuXaXf.] 2X>.6 x = : 4XP.!.v f f 1 f T P.P.Q.: = H 7 *./.] d.hXaXpXu..._.*.K =X+XD S oXG.G H.q.g ",
"c H.f c J.J W .XoX0.6 K L.{ , ) ` d.[ u Y.w.4 4.2 x I.m.!.b b : = f M m.x.P.f 2 U 0 5.(.p t.d.u ] * z R.K g .X$X+Xg W H.1 ,.D.g ",
"S 7.+ W 7.J q.%X}.5.G 5.R.1.O.y.t.) p , :.5X9.4 x k r b._.m.*.: : c P.m.P.l f x < 9. X&.> _ ] @.c.;.b.<X7.G 0..X7X6.c 6.g f D.c ",
"J W 5 D.Q E .Xq..X5.G H *.X.c.M./.L.Y.:.4 9.5XU 1 ; X j.2X_.K.b M -.!.E.m.& % 1 I 7X~ C :.<X_._.I.K.>.4.U F 0.#X.X+XY ,.T.e D.e ",
"P J J T.J / 4.P .X0.5 < 2 % %   : :.w.&X3.4 8.%X:.k * a 2XW.2X*.*.!.W.W.a & e ,.%X8.3 |.5XOX:.-   ; < 5 3 C |.:XP H.Q m 4Xj ,.f ",
"D S 7.H.h 7.5 L .X.XS g :.*.b : 9 8 4 9.7X8.6 J D.*.z & n._.2Xv b 1XI.;.& w *.K.W 6 8.;X8.4 8 G = K :.^ L P XX$XJ J 6.g *X6.J J ",
"5 g G.J.J G.. W .X.X6 5 6.D.<.,.= H G < I oXK % : X.+.i +.2XI.: : P.m.w a n ;.; = G 6XI 6 L G < ,.U.G.^ S L #X$XJ # D.J oX=X1 G ",
"@ 7.G.W ,.T f g $Xq.4.S O c T.*XT   2 x O T T.: r w & w a `.W.* r P.W.w w & & w ; T.W 6 J < < J 4XQ.T ; 5 0.$XoXH 5 4.:.W %X9.# ",
"5 J H.4.; ; x 1 6.oXq.S 5 4.T.,.f 2 f ; % M z.z w b.W.+.w ).`.n M `.W.& n m.j.& X.z.: X 1 f x ; ,.P.l.f g H.%X7.2 x g < 5.$XU 3 ",
"G W +X,.  X v x H oXoX^ 4.oXD.c c Q.!.n & X * n & M.`.+.o j.).o.h.1Xm.& n ~.m.& n t X & c D.Q.T m z.P.,.6.+XU.K x x %   0.6X3.A ",
"6 G.G.v b v k ; g G.+X.X.Xq.W Y D.Q.P.h.;.n w y * n +.V w k.).Z.C.W.j.q t a a w a a m -.P.Q.Q.P.R R ,.D.@X@X,.b : k v b K %XoXZ ",
"g q.,.b <.R.*.% % :.oXG.4.J h T F.-.-.E.!.m.o.+.y w o q w r.i.B.A.C.k.t w & a n N h.m.!.!.z.-.-XD.T c ,.OXT.K - % *.I.<.v K.OXx ",
"x :.7.v k ;.K.*.  J 6.I H W W ,.T c l.!.I.P._.`.`.`.m.k.r.Z.A.V.V.V.C.r.h.j.!.!.P.I.R.P.T.T c -XT.G.:.K :.7.b $ X.I.O.i X.2.<.x ",
"1 J *.*.*.X.;.K.k x G H I 4.J.,.c = = M P.1X1XI.I.8X`.~.B.A.p.a.p.i.V.^.~.!.1XP.!.P.R.<.c f ; J G.H.G.:.K K b i M.n.#.#.#.+.X.> ",
"x 7.*._.dXeX+.;.R.x 5 W 4.W Y h f h ; ; M -.b : : N h.Z.B.V.a.p.p.i.V.B.C.N m ; k : ,.T X 2 g 1 g J 4.q.I 2 K I.c.N.sXzX9X+.b.b ",
"7 >.=.2XfXwX#.b.R.x 5 I ^ ,.T e ; c X ; ,.R r * * z h.C.B.i.p.g.g.p.V.[.k.h.l ; f c T c ; 2 x 1 f g W G.^ 6 K R.#.u.wXxX'.O.K.b ",
"8 H v _ ] ..y.M.: x I ^ 4.J.D.R e f e c l.P._.P.P.!.1X~.B.B.V.p.a.p.V.A.C.`.*XP.D.R.*XT.T : ; f ,.Q.=X4.L U G 2 c.y.' y...X.*.- ",
"8 &.<.X.V c.c.z   J 4.W J T l.Q.T.j l !.!.h.P.!.!.W.m.k.r.A.[.{.i.V.B.N B h.Q.P.T.!.T.P.z.c M Q.F.F.,.J 4.oX:.% X.N.O.s X.K.w.x ",
"A U.q.b *.b.X.> - T 7.7.,.c m F.z.z.z.E.x.x.m.a a & o q w r.Z.Z.A.A.k.w q & l a N N z.!.*Xz.-.z.P.m f ,.@XG.b % > X._.;.*.q.%X6 ",
"6 w.oXG 2 k k 2 : ,.U.T.T.,.m R P.x.h.P.j.w w a w a n a w k.8X~.W.`.k.& a N B o l q l h.m.!.T.-.m m T D.D.:.c k - : K 2 K U.oX5 ",
"g I +X0.< < G 1 c D.D.R ,.D.,.c m !.F.r X & z i & j.~.n % h.1Xo.h.`.k.o N 8XP.o B r o o e z.T.l.e ,.D.T R T.T.T J x < . 5.%X4.S ",
"g J 6.I # 3 U 6 6.D.,.f ; Q H.6.f e ; e X ; <.;.w o.M.n * P.2Xz z _.m.w a m.N & l -.c = f k : f G.@X,.f l P.T.T g G F Z ! $XH 2 ",
". ,.G.^ 8.~ Z S G.,.T j ; J #X%XJ ; 1 c 1 T T.; * o & * r I.!.: : !.n.n q w X r ; T.W = H 5   6.>XG.J f f M D.=XG Z 8.|.F +X4.O ",
"q ; D.4.P }.. ^ G.D.J ; :.q.$X^ < 5 G 6 U oX:.X ; N z w i 1XI.: % I.!.a w a z.& O J oX! 5 U H < 0.+XG.Q f c T.%X^ @ XXS q.H.e l ",
"a r l.J.J 0.Z P .X4.x g 4.^ ! 4 5 6 < 8.5X! 4 K @X-.i % o.!._.: v ;.n h.a w M P.H 5 ^ 6X9.4 8 6 < I 4.:.c J H.%XG F }.G %X,.c r ",
"l l T D.J W 4.P $X^ < 5 5 = 0   - 7.q.oX8.3 ~ 7XT : % a I.R.4X,.b ;.;.W.a o e ,.>X8.3 ! &Xw.>.9   7 7 5 < 5 0.$XP .X^ W *Xf ,.r ",
"l M e ,.Q x .X0.XX8.6 I I :.<.L././.R.&.6 9.;X^ = ; % P.I.P.D.T % *.1XP.o.o & O I ;X8.4 5.<X/._.L.K.>.:.H S 4.XXoX+XJ ,.,.; z.f ",
"g 6.; c D.f 7.+X4.4.6 7.Y.K.O.#.[ u p , H %X9.< x g e P.P.z.T : f f z.P.m.a e f < 4.5X&., _ ) $.y.O.2.<X7.G 8.}.=X4.g D.f x 6.g ",
"F G.g f D.c T G.q.}.6 K K.| * ` ) e.[ p <.7.6 I 5 2 z.D.P.T c 1 x ; f F.m.x.f f W < w.Y.u @.d.` ] , { R.I 6 }.$XH.h T D.2 ,.6.S ",
"~ |.4.1 ,.,.T G oX;XI K /.] e.yXyXaXf.] _.:.6 6 6 f *XT.D.c ; + 1 g T D.z.E.f X g 5 *.2X' d.hXiXpXu..._.:.I ;X#XJ c F.R c G.9.L ",
"~ 8.oX1 T T.:.O ! %X5.K M., d.vXlXaXu ' /.- G < H 1 ,.T.D.*Xf g g g T.D.F.R c c O v % M.$.u iXvXcXs.u M.:.5.6XI 1 ,.4X: W G.q.L ",
"x q.6.J 5 G.oX^ < :.:.*.c.u 0XcXgXrX` N.K.- < 8.7X4.J T ,.T.6.f 5 6.T.D.Q c ,.4X,.% % b.n.s eXfXxXqXu n.=.K 6.< L 6X^ g 4.G.7.f ",
"% v D.W S G .X.XJ g x K.M...$.s.e.t.y ;.<.5 U }.oXG.D.Q T G.U.J T T.D.J T J.T.*X@Xc % ;.b.i ;...v.$.| M.b.- x J >X.XF J U.D.c f ",
"- k 6.6.I O ^ .X.Xg k K.X.c. .) u | X.<.&.7 4.U.I 7.T.,.J W q.4.4.D.:.J 6.U.6.J G.:.; *.<.X.X.z u  .1.O.K.2 g oX>XF 5 I U.6.: : ",
"b x J 6.W O J W %XJ :.D.X.M.b.b.M.I.R.K.:.5 4.4.; f ,.G.4.U ! 9.4.K K 6.oX6.g + W Q 2 ,.K.R.R.(.b.n.I.*.K.,.K =X^ 5 6 4.6.K x 2 ",
"K K 5 6.J 5 J J W J G.D.K.<.X.*.>.K :.I U < g 1 % f *.T.+X5.~ ! U x W U.oX4.J g g g O J W :.K %.*.X.K.T.T.*XY W D J g 7.:.g 7.x ",
"G &.5 6.G g Q Q d J D.T ,.f 2 :.5.G 6 5 G 5 g g T z.K.U.OX9.L C 6 x 7.U.U.oXG.^ G S 5 S 5 g G :.:.2 x 7.,.@XJ d J.4.+ 6.4.< q.H ",
"G :.x 6.J 1 J.6.g Y J Y K 2 G 4.%X#X8.^ 5.q.4.OXK.T.D.T K x 8 H b k J :.6.G.+Xq.G.6..X6.W 6.%X3X6.g G W Y W J c H.,.O Q 6.8 4.x ",
"I :.G :.:.O 6.Q T h + J.+X.XP O U oXq.0.q.oX4.OX7.:.x 2 :   : L.L.:   - 2 J q.OX%X4.oXq.G.OX+XH O P %X$X6.+ h S.,.,.g K 5.:.4.G ",
"4.I :.OXJ 1 D.c 6.6.W J ^ .X}.W = c G.oX4.S S L G < f - % { 1.O.b.2.*.% f : 1 c ,.g g G.=XG.J 7 I #X%XW D Q D.,.,.,.f T q.6.q.G ",
"G U.7.:.x f T.D.,.6.Q J J P 9..XT f ; c 7.q.G @ G G g 2 X.c.] ..c.X.;.v c k c f . c H.H.J = g q.$X^ S J 6.H.G.6.6.*Xg x U.OXq.6 ",
"&.OXH 1 ; O f f ; 1 5 5 < # S W Q.<.v c K W ^ ( L C < x I.O.' tXsXX.;.K.c   f J 6.W J J K 6.U.oXW g < 6 5 = ; g c 2 = 2 2 :.<XH ",
"x J 1 2 g 1 x c :.T I W W J 6 1 : b *.*.K x L ! ! Z @ 6 <.V ..fXdX;.X.<.f . f Q Q J J T :.4.H 2 6 S H P W :.W J :.1 = c = 1 :.x ",
"% - x c 2 2 :.q.:.:.W W 7.G.:.J k 2 2 c <.U.q.^ ( ! L 6 K *.+.)._.X.*.c v T ,.W W 6.G.G.:.g g K K 7.U.6.4.7.7.6.7.q.1 1 7.K X % ",
"c K *.x ; K q.:.6 g 6 1 x :.7.D.7.I 2 = f v W W 4.9.#X9.:.>.X.*.*.v <.*.U.T.G.4.G.P g S G G I 7.7.7.6.W 2 < x :.:.OXH = K <.v c ",
"*.<.v - K Y.U.4.5.4.:.J k 2 v ,.8. XoX4.c f k x P U 8.|.4.G G OX7.b :.:.q.W I W G J L ^ 5.0.q.q.U.c ; x :.:.:.4.oXU.OXJ % T K.*.",
"v *.f % K &.6 I G x H K x % % x A A C 6 k c f = = 7 3 3 L C < I G % x 2 5 7 5 O 5 F U C 6 G G G 2 ; : x K H H I H I :.x 2 v v b "
};
