/* XPM */
static char *_1bc854ea6244315bfb52c5894c444edVEKBt2nlU6AMZC97[] = {
/* columns rows colors chars-per-pixel */
"64 68 195 2 ",
"   c #070706",
".  c #060806",
"X  c #080808",
"o  c #0B0C0B",
"O  c #0E120E",
"+  c #11160E",
"@  c #151C0D",
"#  c #100F10",
"$  c #0E1411",
"%  c #111513",
"&  c #131A15",
"*  c #1B1C15",
"=  c #161C19",
"-  c #191E1B",
";  c #230C0B",
":  c #21130F",
">  c #231412",
",  c #2C1211",
"<  c #221E19",
"1  c #2E1B1A",
"2  c #371615",
"3  c #172216",
"4  c #1B2413",
"5  c #1E2912",
"6  c #17211D",
"7  c #1B231D",
"8  c #1F2A1D",
"9  c #22241E",
"0  c #2E231F",
"q  c #212C1B",
"w  c #3A211D",
"e  c #26311B",
"r  c #2C3818",
"t  c #1E1F22",
"y  c #1E2521",
"u  c #1F2A23",
"i  c #222624",
"p  c #2E2620",
"a  c #222B25",
"s  c #2B2B25",
"d  c #25272B",
"f  c #25282C",
"g  c #292E2C",
"h  c #253026",
"j  c #2D3623",
"k  c #26312B",
"l  c #2A332D",
"z  c #2B392C",
"x  c #323F21",
"c  c #33342D",
"v  c #2B2E31",
"b  c #2D3432",
"n  c #2D3B33",
"m  c #313636",
"M  c #323C35",
"N  c #393A36",
"B  c #333639",
"V  c #353C3A",
"C  c #3A3E3C",
"Z  c #324119",
"A  c #3B4829",
"S  c #2D4037",
"D  c #334236",
"F  c #3A4436",
"G  c #35433A",
"H  c #3A443C",
"J  c #37493F",
"K  c #3B483D",
"L  c #3F5034",
"P  c #425525",
"I  c #41493B",
"U  c #50423C",
"Y  c #4A5B3F",
"T  c #546632",
"R  c #3A3F40",
"E  c #3D4441",
"W  c #374C41",
"Q  c #3C4B42",
"!  c #3F5448",
"~  c #414745",
"^  c #424C45",
"/  c #434C48",
"(  c #494F49",
")  c #584E48",
"_  c #435147",
"`  c #44544A",
"'  c #4A544D",
"]  c #455B4E",
"[  c #4A594E",
"{  c #515E45",
"}  c #4D5651",
"|  c #4C5C53",
" . c #505754",
".. c #525D55",
"X. c #545E58",
"o. c #595F5C",
"O. c #586945",
"+. c #4C6255",
"@. c #4F6558",
"#. c #516156",
"$. c #54635A",
"%. c #5A655E",
"&. c #556A5E",
"*. c #58685E",
"=. c #687D4E",
"-. c #627757",
";. c #5A6A61",
":. c #5C6C63",
">. c #577062",
",. c #5E7164",
"<. c #5E786A",
"1. c #626D65",
"2. c #646D68",
"3. c #627267",
"4. c #64746B",
"5. c #6A756D",
"6. c #647A6E",
"7. c #6A796F",
"8. c #737C6F",
"9. c #697770",
"0. c #677B70",
"q. c #6B7C72",
"w. c #717673",
"e. c #727B75",
"r. c #787F7C",
"t. c #6B8449",
"y. c #75816B",
"u. c #6D8175",
"i. c #728275",
"p. c #74847A",
"a. c #7B847C",
"s. c #76897D",
"d. c #7C907E",
"f. c #81877C",
"g. c #879876",
"h. c #7B8C82",
"j. c #7D9286",
"k. c #7F9489",
"l. c #838C83",
"z. c #888E86",
"x. c #829186",
"c. c #849189",
"v. c #8A948D",
"b. c #859A8D",
"n. c #8B988D",
"m. c #8C9691",
"M. c #869E91",
"N. c #8C9A91",
"B. c #929C94",
"V. c #979F9A",
"C. c #9CAA8D",
"Z. c #8CA396",
"A. c #92A396",
"S. c #95A29B",
"D. c #99A39D",
"F. c #96A99D",
"G. c #ABB899",
"H. c #9BA6A0",
"J. c #9DADA3",
"K. c #9DB1A5",
"L. c #9FB0A8",
"P. c #A1AFA5",
"I. c #A4ACA9",
"U. c #A8B9A4",
"Y. c #A4B4AB",
"T. c #AAB6AF",
"R. c #A7BBAC",
"E. c #A6B4B1",
"W. c #ADB6B2",
"Q. c #AABBB2",
"!. c #B1BBB6",
"~. c #B5BDB8",
"^. c #B0C3AB",
"/. c #AFC4B5",
"(. c #B5C2BB",
"). c #B2C7B8",
"_. c #BBC2BD",
"`. c #BBC6C1",
"'. c #BEC9C3",
"]. c #C3D2CA",
"[. c #C8D5CF",
"{. c #CBD8D2",
"}. c #D6DCD8",
"|. c #DDE5DE",
" X c #DDE6E2",
".X c #E4EBE7",
"XX c #E5EDE9",
"oX c #E3F1EB",
"OX c #EBF2ED",
"+X c #ECF6F2",
"@X c #F2F6F5",
"#X c #F5FAF6",
"$X c #F6F9F8",
"%X c #FBFDFC",
"&X c #FFFFFF",
/* pixels */
"    o = i l H ' $.;.:.4.p.s.h.q.9.2.4.2.:.4.2.:.*.#...#.#.| | $.| [ } | ' _ ^ Q K H G G C n b k l l k a i y y y y y 7 - = & = O ",
"X o 7 b ^ #.7.j.A.J.E.!._._._.!.~.W.Y.P.K.F.p.4.4.*.*.:.;.$.$.*.#.| #.#.[ | [ ' _ _ | +.| [ ! W J W W G G n n n n l k h u u 7 $ ",
"X % M ^ X.9.j.F.Q.`.[.%X&X&X&X&X&X&X&X%XXXx.' ' ' ' ( ^ ^ Q Q K H H G G M M M n l l H <.<.>.+.| ! ! ` Q Q _ Q H G n n n k k 7 O ",
"o - ^ ' ' } :.5.r.V.T.@X&X&X&X&X&X&X&X&X{.#.p.h.h.p.u.9.q.6.9.,.:.:.:.;.$.#.| ] _ ' M $.<.&.+.` ! ! ` W Q ` Q n k a i f l f y $ ",
"o i } $.$...$.%.5.B.W. XOXOXOXXXXX.X.X.X[.A.S.S.B.b.j.h.j.h.h.u.q.q.4.4.4.:.$.+.+.#.| $.&.@.[ ` ` [ ` ` ` _ H k a i y i l k u $ ",
"% l 2.:.2.:.2.e.a.D.S.W.(.'.'.(.Q.Q.T.P.Y.Y.Y.J.J.S.M.b.Z.b.j.u.6.q.6.6.4.,.:.&.@.| | ] _ Q H G G G G H G H Q l k f a g l k a $ ",
"% C h.} m N N C I ( e.J.B.D.D.S.B.N.c.h.h.h.l.l.p.5.e.i.4.4.4.*.| | | ] ] [ ' ^ Q Q Q H M M b l k l l n M b i 7 7 7 - - 7 n k & ",
"= / F.A.n.z.a.z.B._.`.2. .X.X... .' ' ' ( ( ' ^ m b l l l g g f g b b l l l l l f f f i y y y 7 - 7 7 y i Q H z l h a k a z k & ",
"- } n.O.^.oX.XOX#X|.e.E V V V V B B m B B m B b f d f f d f d f f v v v v v v g v v g f d f g g f d f g g f ^ ^ D F H M 4 q h & ",
"- ..x.9 n.$X%X&X}.e.} v d d d d d d d d d d d f d f d d f d f d f d d f d f d f d d f d f d f f d f d f d d i K K K D M + 7 k & ",
"7 $.n.- 5.#X&X}.w. .v d f d d f d f d f d d f d f d f f d f d f d f f d f d f d f f d f d f d d f d f d f d d f E Q G n O % k & ",
"y *.B.9 w.$X%Xv.o.v d f d f f d f d f d f f d f d f d d f d f d f d d f d f d f d d f d f d f f d f d f d f f d f ` J D % % k & ",
"i 3.R.{ f.%X$XI.} d f d f d d f d f d f d d f d f d f f d f d f d f f d f d f d f f d f d f d d f d f d f d f d g } W D 4 & k & ",
"i :.R.g.C.%X$XH./ d f d f d d f d f d f d d f d f d f f d f d f d f f d f d f d f f d f d f d d f d f d f d d g l :.! D 5 4 u & ",
"i 4.J.=.C.&X$Xm.b d d f d f f d f d f d f f d f d f d d f d f d f d d f d f d f d d f d f d f f d f d f d f f f l 3.| G 5 5 a & ",
"i 4.P.O.C.&X$Xm.b d f d f d d f d f d f d d f d f d f f d f d f d f f d f d f d f f d f d f d d f d f d f d d f b 3.+.G 4 q k & ",
"a 4.Q._ f.%X$Xv.b f d f d f f d f d f d f f d f d f d d f d f d f d d f d f d f d d f d f d f f d f d f d f f g g $.] J & 7 h & ",
"g 5.).V 2.@X@Xc.b d f d f d d f d f d f d d f d f d f f d f d f d f f d f d f d f f d f d f d d f d f d f d d f g [ ! G = % a & ",
"a 5.Q.' I.+XOXv.b d d f d f f d f d f d f f d f d f d d f d f d f d d f d f d f d d f d f d f f d f d f d f f d g ' J G & & a & ",
"i 5./.g.|.oXXXN.b d f d f d d f d f d f d d f d f d f f d f d f d f f d f d f d f f d f d f d d f d f d f d d d g ' H M 5 8 a & ",
"a 7./.t.U.W.e.9.b d f d f d d f d f d f d d f d f d f f d f d f d f f d f d f d f f d f d f d d f d f d f d d f i a f M q q k & ",
"a 4.P.O.G.D.7.h.b d d f d f f d f d f d f f d f d f d d f d f d f d d f d f d f d d f d f d f f d f d f d f f d i - i H q q k & ",
"a ,.Y.H P.`.D.a.b d f d f d d f d f d f d d f d f d f f d f d f d f f d f d f d f f d f d f d d f d f d f d d f a n z M & 8 a $ ",
"i 4.Y.g D.|.N.w.v f d f d f f d f d f d f f d f d f d d f d f d f d d f d f d f d d f d f d f f d f d f d f f d g M a n - 7 a & ",
"i :.M.7 r.].p.e.B d f d f d d f d f d f d d f d f d f f d f d f d f f d f d f d f f d f d f d d f d f d f d d f d a 7 b 7 - a & ",
"i :.b.A 8.V.' q.R d d f d f f d f d f d f f d f d f d d f d f d f d d f d f d f d d f d f d f f d f d f d f f f i & % k 8 = i & ",
"i *.d.T g.D.s.j.C d d f d f f d f d f d f f d f d f d d f d f d f d d f d f d f d d f d f d f f d f d f d f f f d 7 y n e 8 u & ",
"y ..q.A y.].(.n.~ d f d f d d f d f d f d d f d f d f f d f d f d f f d f d f d f f d f d f d d f d f d f d d f g / M n 8 4 u & ",
"7 | 9.9 5.).L.l.E d d f d f f d f d f d f f d f d f d d f d f d f d d f d f d f d d f d f d f f d f d f d f f d b ' k n u 7 u % ",
"7 } 4.= 1.k.q.a.~ d f d f d d f d f d f d d f d f d f f d f d f d f f d f d f d f f d f d f d d f d f d f d d f l Q y n 8 = i % ",
"7 } 9.= *.j.9.q.E d d f d f f d f d f d f f d f d f d d f d f d f d d f d f d f d d f d f d f f d f d f d f f d i G y k = = i % ",
"- ' s.j ..s.4.5.^ d f d f d d f d f d f d d f d f d f f d f d f d f f d f d f d f f d f d f d d f d f d f d f g a M 7 k 8 = y % ",
"- ' i.P -.u.:.4./ d d f d f f d f d f d f f d f d f d d f d f d f d d f d f d f d d f d f d f f d f d f d f f g a b 7 k 4 a u % ",
"- ' 4.P -.u.4.5.~ d d f d f f d f d f d f f d f d f d d f d f d f d d f d f d f d d f d f d f f d f d f d f f d 9 M 7 k 4 q i % ",
"- Q 3.A -.b.4.$.E d f d f d d f d f d f d d f d f d f f d f d f d f f d f d f d f f d f d f d d f d f d f d f d 7 g y l * 8 a % ",
"= H :.* [ j.Q #.E d d f d f f d f d f d f f d f d f d d f d f d f d d f d f d f d d f d f d f f d f d f d f f d 7 & - M O 7 i $ ",
"= Q :.% } J.:.;.H d f d f d d f d f d f d d f d f d f f d f d f d f f d f d f d f f d f d f d d f d f d f d f d y i a ^ O % a % ",
"= Q 4.- } J.&.| C d d f d f f d f d f d f f d f d f d d f d f d f d d f d f d f d d f d f d f f d f d f d f f i 8 8 a _ % % a % ",
"= H ,.x ' S...| C d f d f d d f d f d f d d f d f d f f d f d f d f f d f d f d f f d f d f d d f d f d f d f d i y g _ 4 & a % ",
"% M #.Z Y x.| [ C d d f d f f d f d f d f f d f d f d d f d f d f d d f d f d f d d f d f d f f d f d f d f f d i i k Q 4 4 a & ",
"% n [ r L q...' C d d f d f f d f d f d f f d f d f d d f d f d f d d f d f d f d d f d f d f f d f d f d f f d a i C G 4 4 a $ ",
"% b _ e I q.4.' V d f d f d d f d f d f d d f d f d f f d f d f d f f d f d f d f f d f d f d d f d f d f d d d a V W n 4 5 u $ ",
"% k Q & D >.q...m f d f d f f d f d f d f f d f d f d d f d f d f d d f d f d f d d f d f d f f d f d f d f f d i Q S b % & u $ ",
"% k H O k &.0.' v d f d f d d f d f d f d d f d f d f f d f d f d f f d f d f d f f d f d f d d f d f d f d d g i Q S l O % y $ ",
"% k H 7 n @.0.} g f d f d f f d f d f d f f d f d f d d f d f d f d d f d f d f d d f d f d f f d f d f d f f d i Q n k % % u $ ",
"% a G H ^ ` 4.} f d f d f d d f d f d f d d f d f d f f d f d f d f f d f d f d f f d f d f d d f d f d f d f d i Q k a i a 8 % ",
"% y 0 1 w w ) ' g d f d f d d f d f d f d d f d f d f f d f d f d f f d f d f d f f d f d f d d f d f d f d f g i N > : > > * % ",
"$ 7 1 2 2 2 U ' d f d f d f f d f d f d f f d f d f d d f d f d f d d f d f d f d d f d f d f f d f d f d f f d i c ; ; ; ; * $ ",
"# 7 c N C H 1.' f d f d f d d f d f d f d d f d f d f f d f d f d f f d f d f d f f d f d f d d f d f d f d d f i H s i i i 8 $ ",
"o - a s s c ( E g f d d d f f d f d f d f f d f d f d d f d f d f d d f d f d f d d f d f d f f d f d f d f f g i z 9 9 9 i 7 $ ",
"o - l l N H ( G f d f d f d d f d f d f d d f d f d f f d f d f d f f d f d f d f f d f d f d d f d f d f d d f i l s s i a 8 $ ",
"o = 9 < p p c l g f d g d f f d f d f d f f d f d f d d f d f d f d d f d f d f d d f d f d f f d f d f d f f d y i < < * < - $ ",
"o = > , , , 0 k g d f d f d d f d f d f d d f d f d f f d f d f d f f d f d f d f f d f d f d d f d f d f d d f y < ; ; ; ; * $ ",
"o = s s c M H l g d f d f d d f d f d f d d f d f d f f d f d f d f f d f d f d f f d f d f d d f d f d f d d f y a a 9 9 a 7 O ",
"o % u 3 4 z H l g f d f d f f d f d f d f f d f d f d d f d f d f d d f d f d f d d f d f d f f d f d f d f f d y k h 3 4 a 7 O ",
"o % 7 & O k n k g d f d f d d f d f d f d d f d f d f f d f d f d f f d f d f d f f d f d f d d f d f d f d d d 7 f a O + y = O ",
"X $ 7 % . i l a i f d f d f f d f d f d f f d f d f d d f d f d f d d f d f d f d d f d f d f f d f d f d f f d 7 i a o o y - $ ",
"X O 7 % . i l a i d f d f d d f d f d f d d f d f d f f d f d f d f f d f d f d f f d f d f d d f d f d f d d d 7 f i O o y 7 $ ",
"X O 6 & O u k i y f d f d f f d f d f d f f d f d f d d f d f d f d d f d f d f d d f d f d f f d f d f d f f d 7 f a & O u 7 O ",
"X O = & @ u l i y d f d f d d f d f d f d d f d f d f f d f d f d f f d f d f d f f d f d f d d f d f d f d f d 7 l u & @ 8 - O ",
"X o % + + 8 f y - d f d f d d f d f d f d d f d f d f f d f d f d f f d f d f d f f d f d f d d f d f d f d f d 7 a u @ @ 7 - $ ",
"X o % O o 7 k y - f d f d f f d f d f d f f d f d f d d f d f d f d d f d f d f d d f d f d f f d f d f d f f d - l i O + y = O ",
"X o % o   = i y = d f d f d d f d f d f d d f d f d f f d f d f d f f d f d f d f f d f d f d d f d f d f f f d 7 b a O O y = O ",
"X X $ o . = 7 7 % d d f d f f d f d f d f f d f d f d d f d f d f d d f d f d f d d f d f d f f d f d f f f f d y l a $ O 7 = O ",
"X o & = 7 i l y = d f d f d d f d f d f d d f d f d f f d f d f d f f d f d f d f f d f d f d d f d f d f d d d i M n l k h 7 $ ",
"X o % = - 7 y i - d d f d f f d f d f d f f d f d f d d f d f d f d d f d f d f d d f d f d f f d f d f d f f d l k h k k i i = ",
"X o O % % = - 8 - d f f f f f f f f f f f f f f f f f f f f f f f f f f f f f f f f f f f f f f f f f f f f f d f i 9 i i 7 7 = ",
"X X X X o o o O % d d d d d d d d d d d d d d d d d d d d d d d d d d d d d d d d d d d d d d d d d d d d i t = % % O $ $ $ O o "
};
