/* XPM */
static char *a689302f0c554861cc20647ab7cebbb3mjol3qwX3gpVYQhZ[] = {
/* columns rows colors chars-per-pixel */
"64 69 150 2 ",
"   c None",
".  c #1E170C",
"X  c #1F180D",
"o  c #251C0E",
"O  c #291E0F",
"+  c #221D13",
"@  c #2A1F10",
"#  c #2B200F",
"$  c #252117",
"%  c #2E2312",
"&  c #26241B",
"*  c #29261D",
"=  c #2A281F",
"-  c #322613",
";  c #362914",
":  c #3B2D16",
">  c #332A1B",
",  c #3F2F18",
"<  c #3F3017",
"1  c #3F3118",
"2  c #2C2A22",
"3  c #312E26",
"4  c #353126",
"5  c #383225",
"6  c #35332B",
"7  c #39362D",
"8  c #3C392F",
"9  c #3D3A31",
"0  c #402F17",
"q  c #402F18",
"w  c #403017",
"e  c #443319",
"r  c #48371B",
"t  c #4B391D",
"y  c #403625",
"u  c #423B2D",
"i  c #423E35",
"p  c #444137",
"a  c #484337",
"s  c #464239",
"d  c #4A463B",
"f  c #4D493E",
"g  c #514C3F",
"h  c #4F4B40",
"j  c #524D42",
"k  c #565146",
"l  c #595346",
"z  c #5B564A",
"x  c #5E594B",
"c  c #615B4D",
"v  c #685F4D",
"b  c #645E51",
"n  c #6D624E",
"m  c #72644E",
"M  c #666153",
"N  c #6A6355",
"B  c #6D6658",
"V  c #6F685A",
"C  c #736C5D",
"Z  c #77705F",
"A  c #78705F",
"S  c #766F60",
"D  c #777061",
"F  c #797162",
"G  c #787162",
"H  c #797262",
"J  c #797263",
"K  c #7A7262",
"L  c #7A7363",
"P  c #797261",
"I  c #7A7464",
"U  c #7B7464",
"Y  c #7B7465",
"T  c #7C7565",
"R  c #7D7666",
"E  c #7E7667",
"W  c #7E7767",
"Q  c #7F7767",
"!  c #7B7363",
"~  c #7F7868",
"^  c #7F7868",
"/  c #807868",
"(  c #807969",
")  c #817969",
"_  c #817A69",
"`  c #827A6A",
"'  c #837B6A",
"]  c #857B6B",
"[  c #837C6B",
"{  c #847C6B",
"}  c #847C6C",
"|  c #847D6C",
" . c #867E6D",
".. c #867E6E",
"X. c #867F6E",
"o. c #877F6E",
"O. c #877F6F",
"+. c #867E6D",
"@. c #887E6E",
"#. c #87806E",
"$. c #87806E",
"%. c #88806E",
"&. c #88806F",
"*. c #89816F",
"=. c #88806F",
"-. c #898170",
";. c #888170",
":. c #8B8371",
">. c #8A8271",
",. c #8B8372",
"<. c #8C8372",
"1. c #8D8473",
"2. c #8D8573",
"3. c #8E8674",
"4. c #8F8674",
"5. c #8F8675",
"6. c #8F8775",
"7. c #8C8472",
"8. c #908775",
"9. c #908775",
"0. c #908876",
"q. c #918876",
"w. c #928977",
"e. c #928A77",
"r. c #918977",
"t. c #928A78",
"y. c #938A78",
"u. c #948B79",
"i. c #948C79",
"p. c #958D79",
"a. c #958C7A",
"s. c #978E7B",
"d. c #958D7A",
"f. c #988F7C",
"g. c #988F7C",
"h. c #98907D",
"j. c #99907D",
"k. c #9A917E",
"l. c #9A917F",
"z. c #9B927E",
"x. c #9D917F",
"c. c #9C937F",
"v. c #9C947F",
"b. c #9A917E",
"n. c #9B9280",
"m. c #9B9380",
"M. c #9C9280",
"N. c #9D9280",
"B. c #9D9480",
"V. c #9C9480",
/* pixels */
"                                                c.v.        c.k.k.k.k.k.                                                        ",
"                                        n.k.k.k.k.k.F   k.k.i.>.o.>.k.w.D F                                                     ",
"                                      k.w.o.1.&.k.R x f.i.#.o.&.t.k.k.#.F D b   k.i.i.k.M.                                      ",
"                                    o.o.o.o.o.o.o.b c >.o.o.o.o.o.o.o.o.F B j >.#.o.o.o.6.k.k.                                  ",
"                            B.k.k.R C / / [ / / D s z o.o.o.o.o.o.o.F D D z j / o.o.o.o.w.w.1.>.                                ",
"                          k.k.k.k.o./ c C D D D b 9 p z c V D F F D D D b k x D / o.o.o.o.o.R c C                               ",
"                        >.k.k.k.6.o.o.B d z c z i 4 2 6 s d d f b S C c z s z D D F o.o.~ / D z b                               ",
"                        o.o.&.o.o.o./ B 2 9 p = + X . . . . . . . X + & 3 7 4 l N S D D D D D k N                               ",
"                        o.o.o./ U F D z * X . . . . . . . . o o o o o . . . + 2 9 d N D D C z x <.k.k.k.M.                      ",
"              n.k.k.8.] M R F D D D b 7 o . . o o o o o o o o o o o o X o o . . X & 7 f x k 7 C 6.k.k.f.t.                      ",
"            >.o.&.6.o.o.j f x b z k 7 + . o o o o o o o O o o o o o o o o o o X . . X * 4 6 3 S R o.o.o.o.&.                    ",
"            o.o.o.o.~ D z 2 * & $ + . . . o o @ % o o o O o # % % % % o @ o o o . . . . + 2 2 C D R o.o.o.o.                    ",
"          n.i.&.o.F D B d 2 . . o o X . . @ % % % o % o o o - % % % ; o % o o o . . O . . . & 6 x V F o.o.o.#.                  ",
"        n.u.>.o.F S x f 6 . . X o o o . . % % - % O % o O o % : ; : : @ % o % o . . @ o o . . o 2 z x D o.{ U                   ",
"        R o.o.o.D x i 3 . . o o O o o o X % - : % @ % % o o % , : : - - - o % o X . % % o o o . . * k N D C z                   ",
"        x C U F C z 2 . . o o % % % % o o % ; : % % % % O o - : : : : : - O % @ o . - - - % o o . . & 7 k f [ U                 ",
"          2 3 d z s + o o o % % % % % % o % : : : % % % % o : : < e e e - O % % O . : : : % % O X . . & b o.R D C c             ",
"        F N i 2 2 2 o o o - % - ; - % % o % : : : - : % % O : , r e e e ; O % % % o ; : : % : ; O o X . f / o.o.F C z           ",
"      f.R D C j 9 2 o o % : - ; : ; - % o - : e : - : % - % : e t e r e ; % % - % o - , e - : : % o o . . x k.f.o.#.C x         ",
"    k.k.k.t.D B z 9 o o - : % : : ; - % O - : e < : : % - O - e t w t e ; ; - - % o - e t ; : : - % o o . $ F k.o.o.D x         ",
"    >.o.#.>.>.U c 9 o o ; , - : : ; ; % % - , e e : : - - O - r t , t e ; : - ; % o % e t , : : ; % o o o . C / i.o.D z         ",
"    &.o.o.o.o./ C 9 o O , e e e e ; ; % % - , r e ; , : ; % - r t , t e : : - : % o % e t e : , : % @ O o . N R i.R D z i       ",
"    o.o.o.U C C z 7 o O , e e e e : : % % - , t e ; e e ; % - e e : t e : : % : % o % e t e : , : % % % o . b / &.D D z i       ",
"    &.o.o.R D S b 7 o O , r t e e , : % - - , t e ; e < ; % - e e - t e : : - : % o % e t e : e : - % % o o x / #.D C j i       ",
"    o.! o.o.o.D B 6 o O , r t e e , ; % % - , t e ; r , ; - - e r t t e : : - : % o % e e e : e : - ; % o o z o.R D b s i       ",
"      z B D D S f 2 o O e r t e r < - % o - < t e ; r , ; % - e r t t e : : ; : - o % e e e : e : % ; % o o d D D N z i i       ",
"    ~ x f i 9 6 2 X o O e e t e t e - % o - e e e ; r , ; % - e r t t e ; : ; : - o % r e % , e : - ; % O o + C x d i i         ",
"  i.k.t./ c z z i + o @ e e e e r e ; % o ; e e ; : e , ; % - e r t t e - : ; : ; o % t e : e e , : : % % o 8 #.t.6.S V z       ",
"  #.>.k.k.U D x s * o % r e e e < e ; % o ; e e r t e : - % - e r t e e % : ; : : o % t e e t e , : : % % o b o.8.1.V B z       ",
"  o.o.o.#.F D z l = o % r e e : : e ; % o ; e e t t e : % o - e r r , - ; : ; : : o % t e e t e : : : % % o C o./ ! F C z       ",
"  o.o.o.o.D D C k * o - e e e e , e ; % o ; e t t e , ; % o - e t t e e e ; ; : : o % t e e t e : : : - % o F >.k.f.o.D z       ",
"  o.o.1.w.>.R D d * o ; e e r e e e ; % o ; e t e e : - % o - e t t e e e ; ; : : o % t r e t e : : : ; % o F w.s.#.o.R x       ",
"  o.o.>.6.w.&.D 2 & @ ; t e r e e < ; % o : e t e e : ; - o - e t t e e ; : - : - O - t t e t e , : : : % o F 6.1.1.D D b       ",
"    C D / o.#.c 2 + % ; t r r e e , ; % o , e t t e , : - o - e t t e e e , : ; - O - t t e e e : , ; : % o F >.&./ D D b       ",
"    z k 9 3 6 = & . % ; e t r e e , ; % o , e t e - < : - o ; e t t w r e e < ; ; @ ; t t e e e % , ; : % o D #.o./ D D l       ",
"    D x j i 4 2 2 . % ; e t e e e , ; % o : r t ; : e : - o ; e t t < r r r e ; : % ; t t e e , , , - : % o S o.o.F C z i i     ",
"    D b z i s i 2 * % ; e t e , e , ; % O : t t r e e : % o ; e r t , r t t e ; : % ; r t e e e r e % : - o C o.o.D x j i i     ",
"      R b z c B s 2 % : e r e , e : ; O % : t t t e e : % o ; e e t , r t t e : : @ ; r t e e e t e % : ; o N F F C d i i i     ",
"      o.D D D b z 8 % , e e e , e : - o % : t r t e e : @ o ; e e r : r t e w : ; o ; e t e e e t e % : ; o j S C z z z z       ",
"    &.o.o.R D z z 7 % , r e : e , ; % o - , t e e e , - O o ; e t e : r t e , : - o ; e t r e e t e % : , O + x b c z z z       ",
"    o.o.o.o.F z z 6 - e t e : , : % O o ; , r e e e e , o o ; e t 1 : r r : % : % o ; e t r e e t e - : : % + l #.o.o.N z s     ",
"    o.o.o.o.D z z 6 - e t e < , % % o o ; e e e e r e , O o ; e t e , e e : : : % o - e r r e e t e ; : ; % + k o.o.o.o.D j i   ",
"    o.o.o.#.D z z 3 ; e t e e e : - % o : e e e : r e , O o : e t e 0 e < % : : - o - e e e e e t e < : - % + j o.o.o.o./ B i   ",
"    6.o.o.o.R b k 2 ; r t e 1 e : - % o : e e r ; r e : O o , e t e < e - % : ; % o ; e e e e - t e e : - % + h o.o.o.o./ C i   ",
"    i.o.o.o./ M i 2 ; r e r < e : % % o : e e e ; t e : % o e e t e , e 1 : : - o o ; e e e e - t r e : ; % + f o.o.o.#.D C i   ",
"    U ! U ! b z i & ; r e e , e : % % o : e r ; e t e : % o e e t r , e e : : - o o ; e e e ; % e e e : ; % X p / o.@.>.R C i   ",
"    o.#.&.~ D C f + , r r 1 e e : - % o : e r r e t e : % o e , t e ; e r : : - o o - e e , ; ; , e r : : % . i ! 6.k.>.! N i   ",
"    &.k.&.D D c p X e e t , e e : ; % o : e r r e t e ; # o e : t e ; , t : : - O o - e e e e : , e r : : o . $ b C F V k i i   ",
"      F D D C z 3 o e e t , t e : ; % o : e e r e t e ; O o e : r e - < t : ; % % o - e e e e ; , r r : : o . 3 F 1.6./ ! D     ",
"      N b s s 6 = o e e r r r e : : % o , e e r e e e - o O e : , ; - e t : : : % o - r e e e ; , t e , ; o . 2 R f.k.w.} C z   ",
"  B.U D D D D C 9 % e e e e e e : ; O O , r e e e , ; O o O e : : : : e e ; : : % o - t e e t ; : t e e ; o X 6 ~ k.f./ D z p   ",
"  k.o.o.o.#.D C 9 - e e e e e : - % o % , r e e e e : - o % q : : , e e : ; : : % o - r e 1 t : : r e e ; o X 9 R 1.o.D C z 7   ",
"  i.o.>.s.w.D C 9 ; e e e e e < : % o % , r e e e t e - o % , : : e e e e ; : : - o - e e : t e : , , , - o o d R / R o.D z i   ",
"  i.o.R j x D B 7 ; e r e e e e : - o - , t e e e t e , % % ; : ; e r e e ; : : - o ; e , : t e , e : , - o o p ! &.w.o.D N d   ",
"  k.u.&.o.F D b 3 ; , t t e r e , ; @ - , t e , e t e , % O - : ; e e e e ; , : ; o ; e , , t e , e : : - o o 2 D o.i.w.#.C f   ",
"  u.&.{ S V b s + - : t t e e : : % % ; , t e : r t e , % O - : ; e : r e e : : ; o ; : : , t e , e : : ; o o 2 S R o.o.o.C f   ",
"    b x z s 3 + . % : e t e r : - % % ; < e e ; t t e : % % % : : , , t e e : : ; o ; ; : , t e : e : : ; - o 2 c B b M x 6 6   ",
"  6.6.R C z f 2 + % : e e e e : ; % % ; e e e ; r r e ; % % % ; : : ; r e e : ; ; o - - : , t e ; : : : - ; o 2 V D C c z z d 2 ",
"  k.i.w.R D b 9 + - , r e r e : : % % : e e , ; r e , ; % O % % : : - e e e : % - o % - : , e e ; - : : % % o 2 B F s.k.o.U x 2 ",
"k.o.o.C S F S f + - e t e , ; % ; % % : e e : : e e % ; % o % % : : % e r e : % o o o % : , e e ; % : : % % o 2 M F w.&.o./ N 6 ",
"6.o.o.o.o.o.S f + ; : t t t , ; % % o : e e : : e e % ; % O % % : ; o e r , : % % o o % - , ; e ; O - - % % o * z R o.o./ D M 9 ",
">.o.o.6.k./ C d + : , t e r , ; % % o ; e e : - e e % : % O @ % - % o : e , - % o o o o % : ; : ; @ % % % o o $ f U #.F F D b i ",
">.o.6.i.#.D x d + : , r - ; - o % % o - e e : % e ; - : % % % % % % o ; , : % % o o o o % - - : - % % O o o $ X s D [ o.o.F z 9 ",
"1.o.>.o.R S z p X o y r - o o % - > 3 5 e , - O ; - : - > 6 j c u ; o % : ; % % * 5 7 5 % o % - - % @ * 5 8 b $ 9 S D [ o.b f   ",
"{ o./ / D C z 9 X c F F Z C B B C C F F F F C B c l l x C F F F F F F A C V B B C C F F c d i 9 9 8 9 i l F F F f k x x z j i   ",
"j c h M B j 9 2 u x c c M M M M b c c c c c c c c c x x x x x c c b B C F F F F A C C C C V B N M b c c c x x x g 2 9 f f       ",
"                  n m m                       p g l z x x x x z z z l z z x x x x x x x x x c v v       a f l x x               ",
"                                                                                                                                ",
"                                                                                                                                "
};
