/* XPM */
static char *_7580c01e33249ab8be942506efdda46mgz8DMnNkursKTIm[] = {
/* columns rows colors chars-per-pixel */
"32 32 10 1 ",
"  c None",
". c black",
"X c #010000",
"o c #000100",
"O c #000001",
"+ c #010001",
"@ c #000101",
"# c #020000",
"$ c #000200",
"% c #000002",
/* pixels */
"                                ",
"                                ",
"            ........            ",
"         ..............         ",
"        .....  ..  .....        ",
"      .....          ....       ",
"     ....              ...      ",
"     ...                ...     ",
"    ...                  ...    ",
"   ...                    ...   ",
"   ...                    ...   ",
"   ..                      ..   ",
"  ...                      ...  ",
"  ...                      ...  ",
"  ..                        ..  ",
"  ...      .               ...  ",
"  ...                      ...  ",
"  ..                        ..  ",
"  ...                      ...  ",
"  ...                      ...  ",
"   ..                      ..   ",
"   ...                    ...   ",
"   ...                    ..    ",
"    ...                  ...    ",
"     ...                ...     ",
"      ...              ...      ",
"       ....          ....       ",
"        ................        ",
"         .............          ",
"            ........            ",
"                                ",
"                                "
};
