/* XPM */
static char *a197957ce7c1496299fbf03d613f4b5dX9fE9hsP3QdTJo9A[] = {
/* columns rows colors chars-per-pixel */
"32 32 181 2 ",
"   c #0D0C05",
".  c #1C0601",
"X  c #160903",
"o  c #1C0B04",
"O  c #1D0D09",
"+  c #0B1107",
"@  c #101006",
"#  c #191107",
"$  c #14110A",
"%  c #1F0F10",
"&  c #240603",
"*  c #2C0605",
"=  c #240A05",
"-  c #2B0A05",
";  c #25070A",
":  c #2C060A",
">  c #240C0B",
",  c #2C0C0C",
"<  c #330305",
"1  c #390602",
"2  c #330C06",
"3  c #3A0B03",
"4  c #34050B",
"5  c #3C040B",
"6  c #340C0C",
"7  c #3B0C0C",
"8  c #251006",
"9  c #2C1306",
"0  c #25130C",
"q  c #2C120C",
"w  c #25190C",
"e  c #2A190C",
"r  c #331306",
"t  c #381004",
"y  c #311804",
"u  c #32120D",
"i  c #3B120A",
"p  c #2C0416",
"a  c #2D0E13",
"s  c #3C0612",
"d  c #340D13",
"f  c #3B0B14",
"g  c #36061A",
"h  c #39031D",
"j  c #330C1A",
"k  c #3B0D1A",
"l  c #241414",
"z  c #2C1214",
"x  c #221915",
"c  c #26141A",
"v  c #2A131A",
"b  c #321213",
"n  c #3C1515",
"m  c #34121A",
"M  c #430503",
"N  c #4C0505",
"B  c #440904",
"V  c #4A0906",
"C  c #44040A",
"Z  c #4C030A",
"A  c #420B0D",
"S  c #4C0A0B",
"D  c #560100",
"F  c #5B0301",
"G  c #5D0805",
"H  c #53030D",
"J  c #5C060D",
"K  c #51090D",
"L  c #59080F",
"P  c #441104",
"I  c #4D1305",
"U  c #44110B",
"Y  c #501507",
"T  c #440415",
"R  c #410A14",
"E  c #4C0911",
"W  c #470718",
"Q  c #400A18",
"!  c #490919",
"~  c #530711",
"^  c #5D0612",
"/  c #530913",
"(  c #630304",
")  c #6C0602",
"_  c #650904",
"`  c #6F0802",
"'  c #64060A",
"]  c #6A050C",
"[  c #670A0C",
"{  c #6B080B",
"}  c #760000",
"|  c #760202",
" . c #7B0100",
".. c #780806",
"X. c #73060B",
"o. c #72050A",
"O. c #79010B",
"+. c #7B030D",
"@. c #7C040D",
"#. c #7D040E",
"$. c #71080C",
"%. c #620210",
"&. c #640213",
"*. c #680315",
"=. c #610917",
"-. c #6A0A15",
";. c #730812",
":. c #850201",
">. c #8E0703",
",. c #8F0707",
"<. c #8C0502",
"1. c #8E0800",
"2. c #8D0A00",
"3. c #8E0805",
"4. c #8D0B02",
"5. c #80070C",
"6. c #8F0709",
"7. c #8C0909",
"8. c #950000",
"9. c #910707",
"0. c #940604",
"q. c #940100",
"w. c #980300",
"e. c #9D0300",
"r. c #950800",
"t. c #960900",
"y. c #910D00",
"u. c #920C01",
"i. c #960B01",
"p. c #9B0A02",
"a. c #910609",
"s. c #9F1002",
"d. c #A30401",
"f. c #AD0200",
"g. c #A80600",
"h. c #A90700",
"j. c #AA0401",
"k. c #A30901",
"l. c #A60900",
"z. c #A60902",
"x. c #A00B07",
"c. c #A30A01",
"v. c #A80800",
"b. c #AB0800",
"n. c #AD0A01",
"m. c #AA0A04",
"M. c #A40A08",
"N. c #A80A09",
"B. c #B40104",
"V. c #B90300",
"C. c #B80005",
"Z. c #B90005",
"A. c #BA0103",
"S. c #B00800",
"D. c #B00901",
"F. c #BC020C",
"G. c #B70511",
"H. c #BD0013",
"J. c #BA0814",
"K. c #CD0706",
"L. c #C1000B",
"P. c #C1000D",
"I. c #C3010C",
"U. c #C4000D",
"Y. c #C2020E",
"T. c #CB000C",
"R. c #CC000E",
"E. c #CF000D",
"W. c #D00107",
"Q. c #D10006",
"!. c #C40013",
"~. c #C60015",
"^. c #C30013",
"/. c #CD0010",
"(. c #C20D16",
"). c #CF0B17",
"_. c #CD0A18",
"`. c #D50011",
"'. c #D90010",
"]. c #D90011",
"[. c #DA0013",
/* pixels */
"a d d d v v b 7 e u s s d b b 6 u u z d s 5 6 e 6 b z d f k b l ",
"z u u 6 d d d 6 - u n b 0 z d Q f d > z b n b , 6 6 u , 6 b b b ",
"b q 9 2 7 k d q d a , = 9 u i i i i r 9 - , a m d d 6 q 8 9 b f ",
"b q 9 r f k z x j l w I 6.P.R.U.P.T.L.9.Y w l j c b 6 r q 9 u f ",
"d 6 q u b d z l t @.!.].C.r.u.x.p.u.r.C.].~.+.2 x z 6 7 6 u b d ",
"d 6 d z z d A K h.h.k.2.` F F ( F D F ` 2.l.n.h.U 7 6 d d d b z ",
"u 6 d z z 7 { 0.S.8.} F S K ^ *.&.^ K N F | w.S.>._ 3 q z d d q ",
"9 2 6 b z S 3.K.+.] ~ R d 4 1 M 3 1 6 6 R ~ ] O.Q.>.P w l d 6 r ",
"0 2 m p i n.f.5.{ B Z 5 4 4 * H H * < 4 5 N V ] o.A.l.r h k 0 b ",
"d 6 b > #.h.8.] B = 2 > O > o A 7 # o O > * - V G d.d.o.a d q f ",
"f 6 u w !.d.| Z Z * 5 4 , 6 , / S q 6 , 6 4 6 Z C  .e.H.e b , R ",
"f , 9 I [.>.F 7 5 = 4 : ; : = C C = & : : : > 5 f _ <.[.I 9 q f ",
"d 0 y <.F.` N 7 6 O , ; > > o 5 5 o = > ; , > 4 d V ` Y.<.9 l a ",
"z z r A.r.F Z 2 4 o 6 : > , O 4 4 O = > , 6 > 4 7 B F p.B.9 m l ",
"b d t R.<.J H 1 * X - & . o   ; ; + X . & - o * M Z F r.U.2 k 0 ",
"b s 3 ).8.-.&.3 H A H Z 5 s a T T a 5 5 Z H A H M J { d.(.2 ! q ",
"u f 3 _.q.[ &.1 Z 7 S C 5 6 > R R > 6 5 C / 7 Z M L ( e.J.d W 9 ",
"q a 2 /.<.G H 1 < . 2 & & o   : :   o . * 6 . < M K F i.F.u k 9 ",
"q > r F.r.F Z 6 , # , > O > $ 6 , @ O O > , # , 7 Z F s.B.u b 0 ",
"d q u <.F.` N d 4 = 6 : : : = 5 5 . * : , 6 = 4 7 N ) L.:.9 z d ",
"f , u I ].>.F 5 5 & 4 4 : 4 & Z N & * : 4 5 & C 5 ( <.`.I 8 z f ",
"s 6 b w !.k.} H C = 4 , , , > E S 8 , , , 6 - B H :.k.H.e q , R ",
"6 2 b % @.n.8.] N * < : > : = C C . = = * < * N _ d.N.] z , q k ",
"w u m p i n.j.@.[ B C 5 6 6 * H Z - < 4 5 Z B [ ..A.N.8 k d 0 z ",
"u 6 d c x U a.Q.o.' E R f 5 M N M M 5 f R K ' ..E.>.U x c j d 2 ",
"q 6 d z z 7 _ >.V.e.} F S S / =.L K S S F  .d.A.>._ 3 q z k d q ",
"q u 6 6 d 6 7 P k.l.k.4.` F F ( F F F ` 2.N.N.z.U 3 2 6 d d u q ",
"b q 9 u f d z w 9 $.H.`.C.p.p.N.c.i.p.C.`.H.;.9 x q 6 7 u u q b ",
"k , 8 q b k b c g a e I 7.F.P.F.G.^.F.7.Y e a g c z d u 9 q d k ",
"f 6 8 q b d d d j b , 8 9 u r 6 b b u 9 8 - q b j d d u q q d f ",
"b u 2 u b a d 6 8 u b b q a f T W d , q b b q 8 d 6 6 u b d d b ",
"l , 7 k m z q u u 7 C 5 d z z , 9 9 e d s s d z u q q b f f d z "
};
