/* XPM */
static char *_ada161754c84363a154dcbbc36c48975Gf9opxOaMeRtJZi[] = {
/* columns rows colors chars-per-pixel */
"32 32 212 2 ",
"   c None",
".  c #1F080B",
"X  c #20090A",
"o  c #21090A",
"O  c #20080B",
"+  c #22090A",
"@  c #210A0A",
"#  c #220A0A",
"$  c #260909",
"%  c #270909",
"&  c #25090A",
"*  c #26090A",
"=  c #27090A",
"-  c #290908",
";  c #280809",
":  c #290809",
">  c #280909",
",  c #290909",
"<  c #2A0809",
"1  c #2B0809",
"2  c #2A0909",
"3  c #2B0909",
"4  c #2A090A",
"5  c #2B090A",
"6  c #2D0809",
"7  c #2C0909",
"8  c #2E0808",
"9  c #2F0808",
"0  c #2E0809",
"q  c #2F0809",
"w  c #2E080A",
"e  c #2F080A",
"r  c #2F090A",
"t  c #3E0707",
"y  c #3F0707",
"u  c #320709",
"i  c #340708",
"p  c #350708",
"a  c #340709",
"s  c #370708",
"d  c #380708",
"f  c #390708",
"g  c #3E0708",
"h  c #300809",
"j  c #310809",
"k  c #300909",
"l  c #310909",
"z  c #320808",
"x  c #320809",
"c  c #320909",
"v  c #330909",
"b  c #30080A",
"n  c #31080A",
"m  c #340808",
"M  c #350808",
"N  c #340809",
"B  c #340909",
"V  c #35080A",
"C  c #36080A",
"Z  c #380808",
"A  c #3C0808",
"S  c #3D0808",
"D  c #3F0808",
"F  c #400607",
"G  c #400707",
"H  c #410707",
"J  c #440607",
"K  c #440707",
"L  c #450707",
"P  c #460607",
"I  c #470607",
"U  c #460707",
"Y  c #470707",
"T  c #480607",
"R  c #490607",
"E  c #480707",
"W  c #490707",
"Q  c #4B0606",
"!  c #4A0607",
"~  c #4B0607",
"^  c #4C0606",
"/  c #4D0606",
"(  c #4C0607",
")  c #4D0607",
"_  c #4E0606",
"`  c #4F0607",
"'  c #4E0707",
"]  c #4F0707",
"[  c #400708",
"{  c #450708",
"}  c #480708",
"|  c #4C0708",
" . c #4E0708",
".. c #400808",
"X. c #500607",
"o. c #520606",
"O. c #530606",
"+. c #520607",
"@. c #530607",
"#. c #540606",
"$. c #540607",
"%. c #590506",
"&. c #5A0506",
"*. c #5B0506",
"=. c #5F0605",
"-. c #5C0506",
";. c #5E0506",
":. c #5F0506",
">. c #5E0606",
",. c #600505",
"<. c #610505",
"1. c #620505",
"2. c #630505",
"3. c #600506",
"4. c #620506",
"5. c #640505",
"6. c #650505",
"7. c #660505",
"8. c #680505",
"9. c #690505",
"0. c #6A0505",
"q. c #6F0405",
"w. c #700404",
"e. c #710404",
"r. c #710504",
"t. c #700405",
"y. c #710405",
"u. c #700505",
"i. c #720405",
"p. c #720505",
"a. c #740404",
"s. c #740405",
"d. c #750405",
"f. c #760404",
"g. c #860304",
"h. c #800404",
"j. c #820404",
"k. c #830404",
"l. c #850404",
"z. c #860404",
"x. c #870404",
"c. c #8B0303",
"v. c #8C0303",
"b. c #8F0303",
"n. c #8A0403",
"m. c #880304",
"M. c #8C0304",
"N. c #8D0304",
"B. c #8A0404",
"V. c #8B0404",
"C. c #920303",
"Z. c #960303",
"A. c #970303",
"S. c #920304",
"D. c #990203",
"F. c #980303",
"G. c #990303",
"H. c #9A0303",
"J. c #9B0303",
"K. c #9D0303",
"L. c #9E0303",
"P. c #9F0303",
"I. c #A10303",
"U. c #A20303",
"Y. c #A30303",
"T. c #A00304",
"R. c #AB0302",
"E. c #AB0203",
"W. c #AA0303",
"Q. c #AB0303",
"!. c #AC0203",
"~. c #AC0303",
"^. c #AD0303",
"/. c #AE0303",
"(. c #B00203",
"). c #B00303",
"_. c #B10303",
"`. c #B20202",
"'. c #B20203",
"]. c #B30203",
"[. c #B30303",
"{. c #BF0203",
"}. c #BE0303",
"|. c #BF0303",
" X c #C00303",
".X c #C10303",
"XX c #C10304",
"oX c #C80303",
"OX c #CB0202",
"+X c #CB0303",
"@X c #CC0203",
"#X c #CC0303",
"$X c #CE0303",
"%X c #CF0303",
"&X c #CA0304",
"*X c #CB0304",
"=X c #CF0304",
"-X c #D00304",
";X c #D10304",
":X c #D00305",
">X c #D10305",
",X c #D00404",
"<X c #D10405",
"1X c #D20405",
"2X c #D40404",
"3X c #D50404",
"4X c #D40405",
"5X c #D50405",
"6X c #D60404",
"7X c #D60405",
"8X c #D70405",
"9X c #D70406",
/* pixels */
"                                                                ",
"                                                                ",
"                                                                ",
"                        5X=XoX@XoXoX@X5X                        ",
"                    =X}.W.J.b.A.A.b.J.~.}.-X                    ",
"                5X}.P.l.s.8.3.t.q.3.8.s.l.I. X5X                ",
"              -X).B.q.;.X.! K *.*.K ! X.;.t.c.).-X              ",
"            -XW.h.5.X.K g f i X./ i f g K X.5.h.~.-X            ",
"          5X).h.3./ [ i u 0 > ! K > 0 l Z F / 3.h.).5X          ",
"          }.n.5./ g m 0 > > $ ! K $ > > 0 i g / 5.b. X          ",
"        =XT.q.X.y m 0 > > l l  . .l l > > 0 m [ X.t.I.-X        ",
"        }.l.;.K i 0 > 0 m > o D D o > m > > 0 i K ;.l. X        ",
"      5XW.s.X.g l > > l $ o o 0 0 o o $ m > > l y X.s.~.5X      ",
"      @XJ.8.! f 0 > l > o o o l l o o o > l > 0 f ! 8.P.-X      ",
"      oXb.3.K m > $ l o o o . l 0 . o o o l $ > i K 3.C.&X      ",
"      oXA.t.*./ ! ! / D l l l m m l l l ../ } ! / ;.t.J.@X      ",
"      oXA.q.*./ K {  .D 0 l 0 m m l l 0 D  .{ K / *.t.J.@X      ",
"      oXb.3.K i > $ l o o o . l 0 . o o o l $ > i K 3.C.&X      ",
"      =XJ.8.! f 0 > l > o o o l l o o o > l > 0 f ! 8.P.-X      ",
"      5X~.s.X.g l > > m $ o o l 0 o o $ l > > l y $.s.~.        ",
"        }.g.;.K i 0 > > m > o [ D o > m > > 0 f K ;.m. X        ",
"        =XI.t.X.F i 0 > > l l /  .l l > > 0 m F $.t.I.-X        ",
"          }.B.5./ g i 0 > > $ ! K $ > > 0 m y / 5.M.XX          ",
"          5X).h.3./ F i l 0 > ! K > 0 u f [ / 3.h.).5X          ",
"            -XW.h.5.X.K g f i X./ i f g K $.5.h.~.,X            ",
"              -X).M.t.;.X.! K ;.*.K / $.;.t.M.).,X              ",
"                5X XI.l.s.8.3.t.t.3.8.s.m.I. X5X                ",
"                    ,X X~.P.S.J.J.S.P.~. X-X                    ",
"                        5X-X&X@X@X&X-X                          ",
"                                                                ",
"                                                                ",
"                                                                "
};
